<svg width="235" height="22" viewBox="0 0 235 22" fill="none" xmlns="http://www.w3.org/2000/svg">
<path d="M7.69375 13.3301H3.83828V21H0.379295V1.09375H7.3793C9.67617 1.09375 11.449 1.60872 12.6977 2.63867C13.9464 3.66862 14.5707 5.15885 14.5707 7.10938C14.5707 8.4401 14.2471 9.55664 13.6 10.459C12.962 11.3522 12.0687 12.0404 10.9203 12.5234L15.391 20.8223V21H11.6859L7.69375 13.3301ZM3.83828 10.5547H7.39297C8.55963 10.5547 9.47109 10.263 10.1273 9.67969C10.7836 9.08724 11.1117 8.2806 11.1117 7.25977C11.1117 6.19336 10.8064 5.36849 10.1957 4.78516C9.59414 4.20182 8.6918 3.90104 7.48867 3.88281H3.83828V10.5547ZM30.1867 12.1133H22.0109V18.2383H31.5676V21H18.552V1.09375H31.4719V3.88281H22.0109V9.37891H30.1867V12.1133ZM45.4883 15.873C45.4883 14.998 45.1784 14.3236 44.5586 13.8496C43.9479 13.3757 42.8405 12.8971 41.2363 12.4141C39.6322 11.931 38.3561 11.3932 37.4082 10.8008C35.5944 9.66146 34.6875 8.17578 34.6875 6.34375C34.6875 4.73958 35.3392 3.41797 36.6426 2.37891C37.9551 1.33984 39.6549 0.820312 41.7422 0.820312C43.1276 0.820312 44.3626 1.07552 45.4473 1.58594C46.5319 2.09635 47.3841 2.82552 48.0039 3.77344C48.6237 4.71224 48.9336 5.75586 48.9336 6.9043H45.4883C45.4883 5.86523 45.1602 5.05404 44.5039 4.4707C43.8568 3.87826 42.9271 3.58203 41.7148 3.58203C40.5846 3.58203 39.7051 3.82357 39.0762 4.30664C38.4564 4.78971 38.1465 5.46419 38.1465 6.33008C38.1465 7.05924 38.4837 7.66992 39.1582 8.16211C39.8327 8.64518 40.9447 9.11914 42.4941 9.58398C44.0436 10.0397 45.2878 10.5638 46.2266 11.1562C47.1654 11.7396 47.8535 12.4141 48.291 13.1797C48.7285 13.9362 48.9473 14.8249 48.9473 15.8457C48.9473 17.5046 48.3092 18.8262 47.0332 19.8105C45.7663 20.7858 44.0436 21.2734 41.8652 21.2734C40.4251 21.2734 39.099 21.0091 37.8867 20.4805C36.6836 19.9427 35.7448 19.2044 35.0703 18.2656C34.4049 17.3268 34.0723 16.2331 34.0723 14.9844H37.5312C37.5312 16.1146 37.9049 16.9896 38.6523 17.6094C39.3997 18.2292 40.4707 18.5391 41.8652 18.5391C43.0684 18.5391 43.9707 18.2975 44.5723 17.8145C45.1829 17.3223 45.4883 16.6751 45.4883 15.873ZM68.5691 11.5664C68.5691 13.5169 68.2319 15.2305 67.5574 16.707C66.8829 18.1745 65.9168 19.3047 64.659 20.0977C63.4103 20.8815 61.9702 21.2734 60.3387 21.2734C58.7254 21.2734 57.2853 20.8815 56.0184 20.0977C54.7605 19.3047 53.7853 18.179 53.0926 16.7207C52.409 15.2624 52.0626 13.5807 52.0535 11.6758V10.5547C52.0535 8.61328 52.3953 6.89974 53.0789 5.41406C53.7716 3.92839 54.7423 2.79362 55.991 2.00977C57.2488 1.2168 58.6889 0.820312 60.3113 0.820312C61.9337 0.820312 63.3693 1.21224 64.618 1.99609C65.8758 2.77083 66.8465 3.89193 67.5301 5.35938C68.2137 6.81771 68.56 8.51758 68.5691 10.459V11.5664ZM65.1102 10.5273C65.1102 8.32161 64.6909 6.63086 63.8523 5.45508C63.0229 4.2793 61.8426 3.69141 60.3113 3.69141C58.8165 3.69141 57.6453 4.2793 56.7977 5.45508C55.9591 6.62174 55.5307 8.27604 55.5125 10.418V11.5664C55.5125 13.7539 55.9363 15.4447 56.784 16.6387C57.6408 17.8327 58.8256 18.4297 60.3387 18.4297C61.8699 18.4297 63.0457 17.8464 63.866 16.6797C64.6954 15.513 65.1102 13.8086 65.1102 11.5664V10.5273ZM76.1734 18.2383H85.2105V21H72.7145V1.09375H76.1734V18.2383ZM92.7602 16.666L97.8187 1.09375H101.62L94.4555 21H91.1059L83.9691 1.09375H87.7562L92.7602 16.666ZM114.679 16.3652H106.968L105.355 21H101.759L109.279 1.09375H112.382L119.915 21H116.306L114.679 16.3652ZM107.939 13.5762H113.708L110.823 5.31836L107.939 13.5762ZM130.557 21V1.09375H136.436C138.195 1.09375 139.754 1.48568 141.112 2.26953C142.479 3.05339 143.537 4.16536 144.284 5.60547C145.031 7.04557 145.405 8.69531 145.405 10.5547V11.5527C145.405 13.4395 145.027 15.0983 144.27 16.5293C143.523 17.9603 142.452 19.0632 141.057 19.8379C139.672 20.6126 138.082 21 136.286 21H130.557ZM134.016 3.88281V18.2383H136.272C138.086 18.2383 139.476 17.6732 140.442 16.543C141.417 15.4036 141.914 13.7721 141.932 11.6484V10.541C141.932 8.38086 141.463 6.73112 140.524 5.5918C139.585 4.45247 138.223 3.88281 136.436 3.88281H134.016ZM153.201 21H149.755V1.09375H153.201V21ZM173.411 18.416C172.691 19.3548 171.692 20.0658 170.416 20.5488C169.14 21.0319 167.691 21.2734 166.069 21.2734C164.401 21.2734 162.924 20.8952 161.639 20.1387C160.354 19.3822 159.36 18.3021 158.659 16.8984C157.966 15.4857 157.606 13.8405 157.579 11.9629V10.4043C157.579 7.39648 158.299 5.04948 159.739 3.36328C161.179 1.66797 163.189 0.820312 165.768 0.820312C167.983 0.820312 169.742 1.36719 171.045 2.46094C172.349 3.55469 173.133 5.13151 173.397 7.19141H170.006C169.623 4.79427 168.233 3.5957 165.836 3.5957C164.287 3.5957 163.107 4.15625 162.295 5.27734C161.493 6.38932 161.079 8.02539 161.051 10.1855V11.7168C161.051 13.8678 161.502 15.5404 162.405 16.7344C163.316 17.9193 164.579 18.5117 166.192 18.5117C167.96 18.5117 169.218 18.1107 169.965 17.3086V13.4121H165.864V10.7871H173.411V18.416ZM181.562 21H178.116V1.09375H181.562V21ZM200.486 3.88281H194.279V21H190.848V3.88281H184.695V1.09375H200.486V3.88281ZM213.313 16.3652H205.602L203.989 21H200.393L207.913 1.09375H211.016L218.55 21H214.94L213.313 16.3652ZM206.573 13.5762H212.343L209.458 5.31836L206.573 13.5762ZM224.978 18.2383H234.015V21H221.519V1.09375H224.978V18.2383Z" fill="#001AA5"/>
</svg>
