<svg width="97" height="146" viewBox="0 0 97 146" fill="none" xmlns="http://www.w3.org/2000/svg">
<g clip-path="url(#clip0)">
<rect x="-214" y="-2353" width="1440" height="4401" fill="white"/>
<circle cx="45" cy="45" r="43" fill="white" stroke="#E9E5EF" stroke-width="4"/>
<mask id="path-3-inside-1" fill="white">
<path d="M96.9896 46.0419C97.1717 36.9537 94.9683 27.9766 90.5991 20.0055C86.2299 12.0345 79.8475 5.34799 72.0882 0.612763L69.7447 4.45288C76.8327 8.77844 82.6629 14.8864 86.6541 22.1679C90.6454 29.4493 92.6581 37.6498 92.4917 45.9517L96.9896 46.0419Z"/>
</mask>
<path d="M96.9896 46.0419C97.1717 36.9537 94.9683 27.9766 90.5991 20.0055C86.2299 12.0345 79.8475 5.34799 72.0882 0.612763L69.7447 4.45288C76.8327 8.77844 82.6629 14.8864 86.6541 22.1679C90.6454 29.4493 92.6581 37.6498 92.4917 45.9517L96.9896 46.0419Z" stroke="#E8D7EE" stroke-width="8" mask="url(#path-3-inside-1)"/>
<path d="M46.8896 57H44.5166V41.7363C44.5166 40.4668 44.5557 39.2656 44.6338 38.1328C44.4287 38.3379 44.1992 38.5527 43.9453 38.7773C43.6914 39.002 42.5293 39.9541 40.459 41.6338L39.1699 39.9639L44.8389 35.584H46.8896V57Z" fill="#474747"/>
<line x1="44" y1="90" x2="44" y2="146" stroke="#D6B6D9" stroke-width="2"/>
</g>
<defs>
<clipPath id="clip0">
<rect x="-214" y="-2353" width="1440" height="4401" fill="white"/>
</clipPath>
</defs>
</svg>
