<svg width="81" height="3" viewBox="0 0 81 3" fill="none" xmlns="http://www.w3.org/2000/svg">
<g clip-path="url(#clip0)">
<rect x="-681" y="-2396" width="1440" height="4401" fill="white"/>
<line x1="-370" y1="1.5" x2="463" y2="1.49993" stroke="#EDE8F3" stroke-width="3"/>
<mask id="path-3-inside-1" fill="white">
<path d="M-0.0122528 3.12867C0.285866 -10.6027 -4.86065 -23.8945 -14.3282 -33.8446C-23.7958 -43.7948 -36.8154 -49.5952 -50.5447 -49.9796C-64.274 -50.364 -77.5978 -45.3011 -87.6072 -35.8963C-97.6167 -26.4914 -103.499 -13.5085 -103.969 0.218124L-99.4734 0.37228C-99.0435 -12.1668 -93.6702 -24.0265 -84.5267 -32.6177C-75.3832 -41.2089 -63.2121 -45.8338 -50.6706 -45.4827C-38.1291 -45.1315 -26.2358 -39.8329 -17.5874 -30.7436C-8.93886 -21.6542 -4.23759 -9.51244 -4.50991 3.03102L-0.0122528 3.12867Z"/>
</mask>
<path d="M-0.0122528 3.12867C0.285866 -10.6027 -4.86065 -23.8945 -14.3282 -33.8446C-23.7958 -43.7948 -36.8154 -49.5952 -50.5447 -49.9796C-64.274 -50.364 -77.5978 -45.3011 -87.6072 -35.8963C-97.6167 -26.4914 -103.499 -13.5085 -103.969 0.218124L-99.4734 0.37228C-99.0435 -12.1668 -93.6702 -24.0265 -84.5267 -32.6177C-75.3832 -41.2089 -63.2121 -45.8338 -50.6706 -45.4827C-38.1291 -45.1315 -26.2358 -39.8329 -17.5874 -30.7436C-8.93886 -21.6542 -4.23759 -9.51244 -4.50991 3.03102L-0.0122528 3.12867Z" stroke="#D1ADDE" stroke-width="8" mask="url(#path-3-inside-1)"/>
<mask id="path-4-inside-2" fill="white">
<path d="M184.988 3.12867C185.185 -5.96016 182.996 -14.9419 178.639 -22.9209C174.283 -30.8998 167.91 -37.5972 160.157 -42.345C152.405 -47.0928 143.543 -49.7252 134.455 -49.9796C125.368 -50.2341 116.373 -48.1016 108.366 -43.795C100.36 -39.4884 93.6229 -33.1581 88.8265 -25.4354C84.0301 -17.7127 81.3421 -8.8675 81.0305 0.21814C80.719 9.30378 82.7949 18.3123 87.0511 26.3454C91.3073 34.3785 97.5952 41.1554 105.288 46.0003L107.685 42.1936C100.658 37.7679 94.9143 31.5773 91.0263 24.2392C87.1383 16.9011 85.2421 8.6719 85.5266 0.372295C85.8112 -7.92731 88.2666 -16.0073 92.6481 -23.0619C97.0296 -30.1164 103.184 -35.8991 110.498 -39.8331C117.811 -43.7671 126.028 -45.7151 134.329 -45.4827C142.631 -45.2503 150.726 -42.8456 157.808 -38.5085C164.89 -34.1715 170.711 -28.0536 174.691 -20.7649C178.671 -13.4762 180.67 -5.2715 180.49 3.03102L184.988 3.12867Z"/>
</mask>
<path d="M184.988 3.12867C185.185 -5.96016 182.996 -14.9419 178.639 -22.9209C174.283 -30.8998 167.91 -37.5972 160.157 -42.345C152.405 -47.0928 143.543 -49.7252 134.455 -49.9796C125.368 -50.2341 116.373 -48.1016 108.366 -43.795C100.36 -39.4884 93.6229 -33.1581 88.8265 -25.4354C84.0301 -17.7127 81.3421 -8.8675 81.0305 0.21814C80.719 9.30378 82.7949 18.3123 87.0511 26.3454C91.3073 34.3785 97.5952 41.1554 105.288 46.0003L107.685 42.1936C100.658 37.7679 94.9143 31.5773 91.0263 24.2392C87.1383 16.9011 85.2421 8.6719 85.5266 0.372295C85.8112 -7.92731 88.2666 -16.0073 92.6481 -23.0619C97.0296 -30.1164 103.184 -35.8991 110.498 -39.8331C117.811 -43.7671 126.028 -45.7151 134.329 -45.4827C142.631 -45.2503 150.726 -42.8456 157.808 -38.5085C164.89 -34.1715 170.711 -28.0536 174.691 -20.7649C178.671 -13.4762 180.67 -5.2715 180.49 3.03102L184.988 3.12867Z" stroke="#C4A0D0" stroke-width="8" mask="url(#path-4-inside-2)"/>
</g>
<defs>
<clipPath id="clip0">
<rect x="-681" y="-2396" width="1440" height="4401" fill="white"/>
</clipPath>
</defs>
</svg>
