<svg width="104" height="153" viewBox="0 0 104 153" fill="none" xmlns="http://www.w3.org/2000/svg">
<g clip-path="url(#clip0)">
<rect x="-577" y="-2346" width="1440" height="4401" fill="white"/>
<line x1="-266" y1="51.5" x2="567" y2="51.4999" stroke="#EDE8F3" stroke-width="3"/>
<mask id="path-3-inside-1" fill="white">
<path d="M103.988 53.1287C104.286 39.3973 99.1394 26.1055 89.6718 16.1554C80.2042 6.2052 67.1846 0.404755 53.4553 0.0203685C39.726 -0.364018 26.4022 4.69888 16.3928 14.1037C6.38332 23.5086 0.501182 36.4915 0.0305386 50.2181L4.52662 50.3723C4.95654 37.8332 10.3298 25.9735 19.4733 17.3823C28.6168 8.79108 40.7879 4.1662 53.3294 4.51733C65.8709 4.86846 77.7642 10.1671 86.4126 19.2564C95.0611 28.3458 99.7624 40.4876 99.4901 53.031L103.988 53.1287Z"/>
</mask>
<path d="M103.988 53.1287C104.286 39.3973 99.1394 26.1055 89.6718 16.1554C80.2042 6.2052 67.1846 0.404755 53.4553 0.0203685C39.726 -0.364018 26.4022 4.69888 16.3928 14.1037C6.38332 23.5086 0.501182 36.4915 0.0305386 50.2181L4.52662 50.3723C4.95654 37.8332 10.3298 25.9735 19.4733 17.3823C28.6168 8.79108 40.7879 4.1662 53.3294 4.51733C65.8709 4.86846 77.7642 10.1671 86.4126 19.2564C95.0611 28.3458 99.7624 40.4876 99.4901 53.031L103.988 53.1287Z" stroke="#D1ADDE" stroke-width="8" mask="url(#path-3-inside-1)"/>
<circle cx="52" cy="52" r="43" fill="white" stroke="#E9E5EF" stroke-width="4"/>
<path d="M58.1523 47.623C58.1523 48.9902 57.7666 50.1084 56.9951 50.9775C56.2334 51.8467 55.1494 52.4277 53.7432 52.7207V52.8379C55.4619 53.0527 56.7363 53.5996 57.5664 54.4785C58.3965 55.3574 58.8115 56.5098 58.8115 57.9355C58.8115 59.9766 58.1035 61.5488 56.6875 62.6523C55.2715 63.7461 53.2598 64.293 50.6523 64.293C49.5195 64.293 48.4795 64.2051 47.5322 64.0293C46.5947 63.8633 45.6816 63.5654 44.793 63.1357V60.8213C45.7207 61.2803 46.707 61.6318 47.752 61.876C48.8066 62.1104 49.8027 62.2275 50.7402 62.2275C54.4414 62.2275 56.292 60.7773 56.292 57.877C56.292 55.2793 54.251 53.9805 50.1689 53.9805H48.0596V51.8857H50.1982C51.8682 51.8857 53.1914 51.5195 54.168 50.7871C55.1445 50.0449 55.6328 49.0195 55.6328 47.7109C55.6328 46.666 55.2715 45.8457 54.5488 45.25C53.8359 44.6543 52.8643 44.3564 51.6338 44.3564C50.6963 44.3564 49.8125 44.4834 48.9824 44.7373C48.1523 44.9912 47.2051 45.46 46.1406 46.1436L44.9102 44.5029C45.7891 43.8096 46.7998 43.2676 47.9424 42.877C49.0947 42.4766 50.3057 42.2764 51.5752 42.2764C53.6553 42.2764 55.2715 42.7549 56.4238 43.7119C57.5762 44.6592 58.1523 45.9629 58.1523 47.623Z" fill="#474747"/>
<line x1="52" y1="97" x2="52" y2="153" stroke="#D6B6D9" stroke-width="2"/>
</g>
<defs>
<clipPath id="clip0">
<rect x="-577" y="-2346" width="1440" height="4401" fill="white"/>
</clipPath>
</defs>
</svg>
