<svg width="266" height="147" viewBox="0 0 266 147" fill="none" xmlns="http://www.w3.org/2000/svg">
<g clip-path="url(#clip0)">
<rect x="-311" y="-2297" width="1440" height="4401" fill="white"/>
<line x1="-1.31134e-07" y1="100.5" x2="833" y2="100.5" stroke="#EDE8F3" stroke-width="3"/>
<mask id="path-3-inside-1" fill="white">
<path d="M-0.0104388 102.042C0.171691 92.9537 -2.0317 83.9766 -6.40092 76.0055C-10.7701 68.0345 -17.1525 61.348 -24.9118 56.6128L-27.2553 60.4529C-20.1673 64.7784 -14.3371 70.8864 -10.3459 78.1679C-6.35465 85.4493 -4.34188 93.6498 -4.50826 101.952L-0.0104388 102.042Z"/>
</mask>
<path d="M-0.0104388 102.042C0.171691 92.9537 -2.0317 83.9766 -6.40092 76.0055C-10.7701 68.0345 -17.1525 61.348 -24.9118 56.6128L-27.2553 60.4529C-20.1673 64.7784 -14.3371 70.8864 -10.3459 78.1679C-6.35465 85.4493 -4.34188 93.6498 -4.50826 101.952L-0.0104388 102.042Z" stroke="#E8D7EE" stroke-width="8" mask="url(#path-3-inside-1)"/>
<mask id="path-4-inside-2" fill="white">
<path d="M184.988 102.129C185.185 93.0398 182.996 84.0581 178.639 76.0791C174.283 68.1002 167.91 61.4028 160.157 56.655C152.405 51.9072 143.543 49.2748 134.455 49.0204C125.368 48.7659 116.373 50.8984 108.366 55.205L110.498 59.1669C117.811 55.2329 126.028 53.2849 134.329 53.5173C142.631 53.7497 150.726 56.1544 157.808 60.4915C164.89 64.8285 170.711 70.9464 174.691 78.2351C178.671 85.5238 180.67 93.7285 180.49 102.031L184.988 102.129Z"/>
</mask>
<path d="M184.988 102.129C185.185 93.0398 182.996 84.0581 178.639 76.0791C174.283 68.1002 167.91 61.4028 160.157 56.655C152.405 51.9072 143.543 49.2748 134.455 49.0204C125.368 48.7659 116.373 50.8984 108.366 55.205L110.498 59.1669C117.811 55.2329 126.028 53.2849 134.329 53.5173C142.631 53.7497 150.726 56.1544 157.808 60.4915C164.89 64.8285 170.711 70.9464 174.691 78.2351C178.671 85.5238 180.67 93.7285 180.49 102.031L184.988 102.129Z" stroke="#DFC8E8" stroke-width="8" mask="url(#path-4-inside-2)"/>
<circle cx="133" cy="102" r="43" fill="white" stroke="#E9E5EF" stroke-width="4"/>
<path d="M139.958 114H125.881V111.905L131.521 106.236C133.239 104.498 134.372 103.258 134.919 102.516C135.466 101.773 135.876 101.051 136.149 100.348C136.423 99.6445 136.56 98.8877 136.56 98.0771C136.56 96.9346 136.213 96.0312 135.52 95.3672C134.826 94.6934 133.864 94.3564 132.634 94.3564C131.745 94.3564 130.9 94.5029 130.1 94.7959C129.309 95.0889 128.425 95.6211 127.448 96.3926L126.159 94.7373C128.132 93.0967 130.28 92.2764 132.604 92.2764C134.616 92.2764 136.193 92.7939 137.336 93.8291C138.479 94.8545 139.05 96.2363 139.05 97.9746C139.05 99.332 138.669 100.675 137.907 102.003C137.146 103.331 135.72 105.011 133.63 107.042L128.942 111.627V111.744H139.958V114Z" fill="#474747"/>
<line x1="133" y1="4.37114e-08" x2="133" y2="49" stroke="#D6B6D9" stroke-width="2"/>
</g>
<defs>
<clipPath id="clip0">
<rect x="-311" y="-2297" width="1440" height="4401" fill="white"/>
</clipPath>
</defs>
</svg>
