<svg width="104" height="152" viewBox="0 0 104 152" fill="none" xmlns="http://www.w3.org/2000/svg">
<g clip-path="url(#clip0)">
<rect x="-1132" y="-2298" width="1440" height="4401" fill="white"/>
<line x1="-821" y1="99.5" x2="12" y2="99.4999" stroke="#EDE8F3" stroke-width="3"/>
<mask id="path-3-inside-1" fill="white">
<path d="M104 100C104 128.719 80.7188 152 52 152C23.2812 152 0 128.719 0 100C0 71.2812 23.2812 48 52 48C80.7188 48 104 71.2812 104 100ZM4.49872 100C4.49872 126.234 25.7658 147.501 52 147.501C78.2342 147.501 99.5013 126.234 99.5013 100C99.5013 73.7658 78.2342 52.4987 52 52.4987C25.7658 52.4987 4.49872 73.7658 4.49872 100Z"/>
</mask>
<path d="M104 100C104 128.719 80.7188 152 52 152C23.2812 152 0 128.719 0 100C0 71.2812 23.2812 48 52 48C80.7188 48 104 71.2812 104 100ZM4.49872 100C4.49872 126.234 25.7658 147.501 52 147.501C78.2342 147.501 99.5013 126.234 99.5013 100C99.5013 73.7658 78.2342 52.4987 52 52.4987C25.7658 52.4987 4.49872 73.7658 4.49872 100Z" stroke="#9E6BB0" stroke-width="8" mask="url(#path-3-inside-1)"/>
<circle cx="52" cy="100" r="43" fill="white" stroke="#E9E5EF" stroke-width="4"/>
<path d="M45.1299 102.845C45.1299 98.6357 45.9453 95.4912 47.5762 93.4111C49.2168 91.3213 51.6387 90.2764 54.8418 90.2764C55.9453 90.2764 56.8145 90.3691 57.4492 90.5547V92.6494C56.6973 92.4053 55.8379 92.2832 54.8711 92.2832C52.5762 92.2832 50.8232 93.001 49.6123 94.4365C48.4014 95.8623 47.7373 98.1084 47.6201 101.175H47.7959C48.8701 99.4951 50.5693 98.6553 52.8936 98.6553C54.8174 98.6553 56.3311 99.2363 57.4346 100.398C58.5479 101.561 59.1045 103.138 59.1045 105.13C59.1045 107.356 58.4941 109.109 57.2734 110.389C56.0625 111.658 54.4219 112.293 52.3516 112.293C50.1348 112.293 48.377 111.463 47.0781 109.803C45.7793 108.133 45.1299 105.813 45.1299 102.845ZM52.3223 110.228C53.709 110.228 54.7832 109.793 55.5449 108.924C56.3164 108.045 56.7021 106.78 56.7021 105.13C56.7021 103.714 56.3457 102.601 55.6328 101.79C54.9199 100.979 53.8555 100.574 52.4395 100.574C51.5605 100.574 50.7549 100.755 50.0225 101.116C49.29 101.478 48.7041 101.976 48.2646 102.61C47.835 103.245 47.6201 103.904 47.6201 104.588C47.6201 105.594 47.8154 106.531 48.2061 107.4C48.5967 108.27 49.1484 108.958 49.8613 109.466C50.584 109.974 51.4043 110.228 52.3223 110.228Z" fill="#474747"/>
<line x1="52" y1="4.37114e-08" x2="52" y2="48" stroke="#D6B6D9" stroke-width="2"/>
</g>
<defs>
<clipPath id="clip0">
<rect x="-1132" y="-2298" width="1440" height="4401" fill="white"/>
</clipPath>
</defs>
</svg>
