<svg width="266" height="153" viewBox="0 0 266 153" fill="none" xmlns="http://www.w3.org/2000/svg">
<g clip-path="url(#clip0)">
<rect x="-866" y="-2346" width="1440" height="4401" fill="white"/>
<line x1="-555" y1="51.5" x2="278" y2="51.4999" stroke="#EDE8F3" stroke-width="3"/>
<mask id="path-3-inside-1" fill="white">
<path d="M-0.0122505 53.1287C0.185071 44.0398 -2.00383 35.0581 -6.36066 27.0791C-10.7175 19.1002 -17.09 12.4028 -24.8427 7.65499C-32.5954 2.90717 -41.4573 0.274792 -50.5447 0.0203683C-59.6321 -0.234056 -68.6275 1.89837 -76.6336 6.20498C-84.6398 10.5116 -91.3771 16.8419 -96.1735 24.5646C-100.97 32.2873 -103.658 41.1325 -103.969 50.2181C-104.281 59.3038 -102.205 68.3123 -97.9489 76.3454C-93.6927 84.3785 -87.4048 91.1554 -79.7124 96.0002L-77.3149 92.1936C-84.3418 87.7679 -90.0857 81.5773 -93.9737 74.2392C-97.8617 66.9011 -99.7579 58.6719 -99.4734 50.3723C-99.1888 42.0727 -96.7334 33.9927 -92.3519 26.9381C-87.9704 19.8836 -81.816 14.1009 -74.5025 10.1669C-67.1889 6.23285 -58.9718 4.28492 -50.6706 4.51733C-42.3694 4.74974 -34.2741 7.15438 -27.1922 11.4915C-20.1102 15.8285 -14.289 21.9464 -10.3091 29.2351C-6.32919 36.5238 -4.32966 44.7285 -4.50991 53.031L-0.0122505 53.1287Z"/>
</mask>
<path d="M-0.0122505 53.1287C0.185071 44.0398 -2.00383 35.0581 -6.36066 27.0791C-10.7175 19.1002 -17.09 12.4028 -24.8427 7.65499C-32.5954 2.90717 -41.4573 0.274792 -50.5447 0.0203683C-59.6321 -0.234056 -68.6275 1.89837 -76.6336 6.20498C-84.6398 10.5116 -91.3771 16.8419 -96.1735 24.5646C-100.97 32.2873 -103.658 41.1325 -103.969 50.2181C-104.281 59.3038 -102.205 68.3123 -97.9489 76.3454C-93.6927 84.3785 -87.4048 91.1554 -79.7124 96.0002L-77.3149 92.1936C-84.3418 87.7679 -90.0857 81.5773 -93.9737 74.2392C-97.8617 66.9011 -99.7579 58.6719 -99.4734 50.3723C-99.1888 42.0727 -96.7334 33.9927 -92.3519 26.9381C-87.9704 19.8836 -81.816 14.1009 -74.5025 10.1669C-67.1889 6.23285 -58.9718 4.28492 -50.6706 4.51733C-42.3694 4.74974 -34.2741 7.15438 -27.1922 11.4915C-20.1102 15.8285 -14.289 21.9464 -10.3091 29.2351C-6.32919 36.5238 -4.32966 44.7285 -4.50991 53.031L-0.0122505 53.1287Z" stroke="#C4A0D0" stroke-width="8" mask="url(#path-3-inside-1)"/>
<mask id="path-4-inside-2" fill="white">
<path d="M184.988 53.1287C185.235 41.731 181.73 30.5678 175.012 21.3572C168.294 12.1465 158.735 5.39888 147.807 2.15266C136.878 -1.09356 125.186 -0.658429 114.529 3.39109C103.872 7.44061 94.8414 14.8801 88.8265 24.5646C82.8116 34.2491 80.146 45.6419 81.2399 56.9897C82.3339 68.3374 87.1267 79.0112 94.8808 87.3684C102.635 95.7256 112.921 101.303 124.155 103.242C135.389 105.181 146.949 103.375 157.056 98.101L154.975 94.1126C145.742 98.9303 135.182 100.58 124.92 98.809C114.658 97.0376 105.262 91.9427 98.1786 84.3086C91.0954 76.6744 86.7172 66.924 85.7179 56.558C84.7186 46.192 87.1536 35.7848 92.6481 26.9381C98.1426 18.0915 106.392 11.2956 116.127 7.59644C125.862 3.89726 136.543 3.49977 146.526 6.46514C156.509 9.43052 165.241 15.5944 171.377 24.0082C177.514 32.422 180.716 42.6194 180.49 53.031L184.988 53.1287Z"/>
</mask>
<path d="M184.988 53.1287C185.235 41.731 181.73 30.5678 175.012 21.3572C168.294 12.1465 158.735 5.39888 147.807 2.15266C136.878 -1.09356 125.186 -0.658429 114.529 3.39109C103.872 7.44061 94.8414 14.8801 88.8265 24.5646C82.8116 34.2491 80.146 45.6419 81.2399 56.9897C82.3339 68.3374 87.1267 79.0112 94.8808 87.3684C102.635 95.7256 112.921 101.303 124.155 103.242C135.389 105.181 146.949 103.375 157.056 98.101L154.975 94.1126C145.742 98.9303 135.182 100.58 124.92 98.809C114.658 97.0376 105.262 91.9427 98.1786 84.3086C91.0954 76.6744 86.7172 66.924 85.7179 56.558C84.7186 46.192 87.1536 35.7848 92.6481 26.9381C98.1426 18.0915 106.392 11.2956 116.127 7.59644C125.862 3.89726 136.543 3.49977 146.526 6.46514C156.509 9.43052 165.241 15.5944 171.377 24.0082C177.514 32.422 180.716 42.6194 180.49 53.031L184.988 53.1287Z" stroke="#B185C0" stroke-width="8" mask="url(#path-4-inside-2)"/>
<circle cx="133" cy="52" r="43" fill="white" stroke="#E9E5EF" stroke-width="4"/>
<path d="M132.575 49.9189C134.831 49.9189 136.604 50.4805 137.893 51.6035C139.191 52.7168 139.841 54.2451 139.841 56.1885C139.841 58.4053 139.133 60.1436 137.717 61.4033C136.311 62.6631 134.367 63.293 131.887 63.293C129.475 63.293 127.634 62.9072 126.364 62.1357V59.792C127.048 60.2314 127.897 60.5781 128.913 60.832C129.929 61.0762 130.93 61.1982 131.916 61.1982C133.635 61.1982 134.968 60.793 135.915 59.9824C136.872 59.1719 137.351 58 137.351 56.4668C137.351 53.4785 135.52 51.9844 131.857 51.9844C130.93 51.9844 129.689 52.126 128.137 52.4092L126.877 51.6035L127.683 41.584H138.332V43.8252H129.763L129.221 50.2559C130.344 50.0312 131.462 49.9189 132.575 49.9189Z" fill="#474747"/>
<line x1="133" y1="104" x2="133" y2="153" stroke="#D6B6D9" stroke-width="2"/>
</g>
<defs>
<clipPath id="clip0">
<rect x="-866" y="-2346" width="1440" height="4401" fill="white"/>
</clipPath>
</defs>
</svg>
