<svg width="104" height="145" viewBox="0 0 104 145" fill="none" xmlns="http://www.w3.org/2000/svg">
<g clip-path="url(#clip0)">
<rect x="-762" y="-2298" width="1440" height="4401" fill="white"/>
<line x1="-451" y1="99.5" x2="382" y2="99.4999" stroke="#EDE8F3" stroke-width="3"/>
<mask id="path-3-inside-1" fill="white">
<path d="M103.988 101.129C104.185 92.0398 101.996 83.0581 97.6393 75.0791C93.2825 67.1002 86.91 60.4028 79.1573 55.655C71.4046 50.9072 62.5427 48.2748 53.4553 48.0204C44.3679 47.7659 35.3725 49.8984 27.3664 54.205C19.3602 58.5116 12.6229 64.8419 7.8265 72.5646C3.03006 80.2873 0.342055 89.1325 0.0305381 98.2181C-0.280978 107.304 1.79488 116.312 6.05111 124.345C10.3073 132.378 16.5952 139.155 24.2876 144L26.6851 140.194C19.6582 135.768 13.9143 129.577 10.0263 122.239C6.13832 114.901 4.24205 106.672 4.52662 98.3723C4.81118 90.0727 7.26664 81.9927 11.6481 74.9381C16.0296 67.8836 22.184 62.1009 29.4975 58.1669C36.8111 54.2329 45.0282 52.2849 53.3294 52.5173C61.6306 52.7497 69.7259 55.1544 76.8078 59.4915C83.8898 63.8285 89.711 69.9464 93.6909 77.2351C97.6708 84.5238 99.6703 92.7285 99.4901 101.031L103.988 101.129Z"/>
</mask>
<path d="M103.988 101.129C104.185 92.0398 101.996 83.0581 97.6393 75.0791C93.2825 67.1002 86.91 60.4028 79.1573 55.655C71.4046 50.9072 62.5427 48.2748 53.4553 48.0204C44.3679 47.7659 35.3725 49.8984 27.3664 54.205C19.3602 58.5116 12.6229 64.8419 7.8265 72.5646C3.03006 80.2873 0.342055 89.1325 0.0305381 98.2181C-0.280978 107.304 1.79488 116.312 6.05111 124.345C10.3073 132.378 16.5952 139.155 24.2876 144L26.6851 140.194C19.6582 135.768 13.9143 129.577 10.0263 122.239C6.13832 114.901 4.24205 106.672 4.52662 98.3723C4.81118 90.0727 7.26664 81.9927 11.6481 74.9381C16.0296 67.8836 22.184 62.1009 29.4975 58.1669C36.8111 54.2329 45.0282 52.2849 53.3294 52.5173C61.6306 52.7497 69.7259 55.1544 76.8078 59.4915C83.8898 63.8285 89.711 69.9464 93.6909 77.2351C97.6708 84.5238 99.6703 92.7285 99.4901 101.031L103.988 101.129Z" stroke="#C4A0D0" stroke-width="8" mask="url(#path-3-inside-1)"/>
<circle cx="52" cy="100" r="43" fill="white" stroke="#E9E5EF" stroke-width="4"/>
<path d="M59.9688 107.078H56.79V112H54.4609V107.078H44.0459V104.954L54.2119 90.4668H56.79V104.866H59.9688V107.078ZM54.4609 104.866V97.7471C54.4609 96.3506 54.5098 94.7734 54.6074 93.0156H54.4902C54.0215 93.9531 53.582 94.7295 53.1719 95.3447L46.4775 104.866H54.4609Z" fill="#474747"/>
<line x1="51" y1="4.37114e-08" x2="51" y2="48" stroke="#D6B6D9" stroke-width="2"/>
</g>
<defs>
<clipPath id="clip0">
<rect x="-762" y="-2298" width="1440" height="4401" fill="white"/>
</clipPath>
</defs>
</svg>
