<svg width="58" height="58" viewBox="0 0 58 58" fill="none" xmlns="http://www.w3.org/2000/svg">
<g clip-path="url(#clip0)">
<path d="M0.849609 42.3482C1.31866 42.3482 1.69922 41.968 1.69922 41.4986V16.7532H51.8974V26.0923C51.8974 26.5618 52.278 26.9419 52.747 26.9419C53.2165 26.9419 53.5966 26.5618 53.5966 26.0923V9.30145C53.5966 6.45305 51.2792 4.13565 48.4313 4.13565H46.2033V3.08337C46.2033 1.94525 45.2775 1.01953 44.1394 1.01953H42.561C41.4233 1.01953 40.4976 1.94525 40.4976 3.08337V4.13565H34.8627V3.08337C34.8627 1.94525 33.937 1.01953 32.7989 1.01953H31.2205C30.0828 1.01953 29.1571 1.94525 29.1571 3.08337V4.13565H23.5218V3.08337C23.5218 1.94525 22.5961 1.01953 21.4579 1.01953H19.88C18.7419 1.01953 17.8161 1.94525 17.8161 3.08337V4.13565H12.1813V3.08337C12.1813 1.94525 11.2556 1.01953 10.1174 1.01953H8.53946C7.40134 1.01953 6.47562 1.94525 6.47562 3.08337V4.13565H5.1658C2.3174 4.13565 0 6.45305 0 9.30145V41.4986C0 41.968 0.380554 42.3482 0.849609 42.3482ZM42.1968 3.08337C42.1968 2.88248 42.3605 2.71875 42.5614 2.71875H44.1399C44.3408 2.71875 44.504 2.88248 44.504 3.08337V7.21106C44.504 7.41196 44.3408 7.57568 44.1399 7.57568H42.5614C42.3605 7.57568 42.1968 7.4124 42.1968 7.21106V3.08337ZM30.8563 3.08337C30.8563 2.88248 31.0196 2.71875 31.2205 2.71875H32.7989C32.9998 2.71875 33.1635 2.88248 33.1635 3.08337V7.21106C33.1635 7.41196 32.9998 7.57568 32.7989 7.57568H31.2205C31.0196 7.57568 30.8563 7.4124 30.8563 7.21106V3.08337ZM19.5154 3.08337C19.5154 2.88248 19.6791 2.71875 19.88 2.71875H21.4584C21.6593 2.71875 21.823 2.88248 21.823 3.08337V7.21106C21.823 7.41196 21.6593 7.57568 21.4584 7.57568H19.88C19.6791 7.57568 19.5154 7.4124 19.5154 7.21106V3.08337ZM8.17484 3.08337C8.17484 2.88248 8.33856 2.71875 8.53946 2.71875H10.1179C10.3188 2.71875 10.4821 2.88248 10.4821 3.08337V7.21106C10.4821 7.41196 10.3188 7.57568 10.1179 7.57568H8.53946C8.33856 7.57568 8.17484 7.4124 8.17484 7.21106V3.08337ZM5.1658 5.83487H6.47562V7.21106C6.47562 8.34918 7.40134 9.2749 8.53946 9.2749H10.1179C11.2556 9.2749 12.1813 8.34918 12.1813 7.21106V5.83487H17.8166V7.21106C17.8166 8.34918 18.7423 9.2749 19.88 9.2749H21.4584C22.5965 9.2749 23.5222 8.34918 23.5222 7.21106V5.83487H29.1571V7.21106C29.1571 8.34918 30.0828 9.2749 31.2209 9.2749H32.7993C33.937 9.2749 34.8627 8.34918 34.8627 7.21106V5.83487H40.4976V7.21106C40.4976 8.34918 41.4233 9.2749 42.5614 9.2749H44.1399C45.2775 9.2749 46.2033 8.34918 46.2033 7.21106V5.83487H48.4313C50.3429 5.83487 51.8979 7.38983 51.8979 9.30145V15.054H1.69922V9.30145C1.69922 7.38983 3.25418 5.83487 5.1658 5.83487Z" fill="white"/>
<path d="M9.61873 50.2495H2.21031C1.92844 50.2495 1.69922 50.0203 1.69922 49.7384V45.3705C1.69922 44.901 1.31866 44.5209 0.849609 44.5209C0.380554 44.5209 0 44.901 0 45.3705V49.7384C0 50.9571 0.991653 51.9487 2.21031 51.9487H9.61873C10.0878 51.9487 10.4683 51.5682 10.4683 51.0991C10.4683 50.6296 10.0878 50.2495 9.61873 50.2495Z" fill="white"/>
<path d="M9.59 19.2308H6.63672C6.16766 19.2308 5.78711 19.6114 5.78711 20.0804C5.78711 20.5499 6.16766 20.93 6.63672 20.93H9.59C10.0591 20.93 10.4396 20.5499 10.4396 20.0804C10.4396 19.6114 10.0591 19.2308 9.59 19.2308Z" fill="white"/>
<path d="M15.7129 20.93H18.6662C19.1352 20.93 19.5158 20.5499 19.5158 20.0804C19.5158 19.6114 19.1352 19.2308 18.6662 19.2308H15.7129C15.2438 19.2308 14.8633 19.6114 14.8633 20.0804C14.8633 20.5499 15.2438 20.93 15.7129 20.93Z" fill="white"/>
<path d="M24.7891 20.93H27.7419C28.211 20.93 28.5915 20.5499 28.5915 20.0804C28.5915 19.6114 28.211 19.2308 27.7419 19.2308H24.7891C24.3196 19.2308 23.9395 19.6114 23.9395 20.0804C23.9395 20.5499 24.3196 20.93 24.7891 20.93Z" fill="white"/>
<path d="M33.8643 20.93H36.8175C37.2866 20.93 37.6671 20.5499 37.6671 20.0804C37.6671 19.6114 37.2866 19.2308 36.8175 19.2308H33.8643C33.3952 19.2308 33.0146 19.6114 33.0146 20.0804C33.0146 20.5499 33.3952 20.93 33.8643 20.93Z" fill="white"/>
<path d="M45.8923 19.2308H42.9395C42.47 19.2308 42.0898 19.6114 42.0898 20.0804C42.0898 20.5499 42.47 20.93 42.9395 20.93H45.8923C46.3613 20.93 46.7419 20.5499 46.7419 20.0804C46.7419 19.6114 46.3613 19.2308 45.8923 19.2308Z" fill="white"/>
<path d="M9.59 23.5032H6.63672C6.16766 23.5032 5.78711 23.8833 5.78711 24.3528C5.78711 24.8223 6.16766 25.2024 6.63672 25.2024H9.59C10.0591 25.2024 10.4396 24.8223 10.4396 24.3528C10.4396 23.8833 10.0591 23.5032 9.59 23.5032Z" fill="white"/>
<path d="M15.7129 25.2024H18.6662C19.1352 25.2024 19.5158 24.8223 19.5158 24.3528C19.5158 23.8833 19.1352 23.5032 18.6662 23.5032H15.7129C15.2438 23.5032 14.8633 23.8833 14.8633 24.3528C14.8633 24.8223 15.2438 25.2024 15.7129 25.2024Z" fill="white"/>
<path d="M24.7891 25.2024H27.7419C28.211 25.2024 28.5915 24.8223 28.5915 24.3528C28.5915 23.8833 28.211 23.5032 27.7419 23.5032H24.7891C24.3196 23.5032 23.9395 23.8833 23.9395 24.3528C23.9395 24.8223 24.3196 25.2024 24.7891 25.2024Z" fill="white"/>
<path d="M33.8643 25.2024H36.8175C37.2866 25.2024 37.6671 24.8223 37.6671 24.3528C37.6671 23.8833 37.2866 23.5032 36.8175 23.5032H33.8643C33.3952 23.5032 33.0146 23.8833 33.0146 24.3528C33.0146 24.8223 33.3952 25.2024 33.8643 25.2024Z" fill="white"/>
<path d="M45.8923 23.5032H42.9395C42.47 23.5032 42.0898 23.8833 42.0898 24.3528C42.0898 24.8223 42.47 25.2024 42.9395 25.2024H45.8923C46.3613 25.2024 46.7419 24.8223 46.7419 24.3528C46.7419 23.8833 46.3613 23.5032 45.8923 23.5032Z" fill="white"/>
<path d="M15.7333 41.8818L20.1017 46.2502C20.7336 46.8821 21.5735 47.2299 22.4674 47.2299C23.3612 47.2299 24.2015 46.8821 24.833 46.2502L36.7961 34.287C38.1006 32.9825 38.1006 30.8598 36.7961 29.5553C35.4916 28.2508 33.3689 28.2508 32.0644 29.5553L22.4674 39.1524L20.4646 37.1501C19.1605 35.8456 17.0378 35.8456 15.7329 37.1501C14.4288 38.4546 14.4288 40.5773 15.7333 41.8818ZM16.9347 38.3515C17.2555 38.0306 17.6772 37.87 18.0989 37.87C18.5207 37.87 18.9424 38.0306 19.2632 38.3515L21.8664 40.9547C22.1983 41.2866 22.736 41.2866 23.0678 40.9547L33.2658 30.7572C33.9083 30.1151 34.9526 30.1151 35.5943 30.7567C36.2363 31.3988 36.2363 32.4436 35.5943 33.0856L23.6316 45.0483C23.3205 45.3594 22.9072 45.5307 22.4674 45.5307C22.0275 45.5307 21.6142 45.3594 21.3031 45.0483L16.9347 40.6799C16.2926 40.0378 16.2926 38.9935 16.9347 38.3515Z" fill="white"/>
<path d="M53.5967 36.7438V29.9642C53.5967 29.4947 53.2166 29.1146 52.7471 29.1146C52.278 29.1146 51.8974 29.4947 51.8974 29.9642V35.6601C50.3482 34.857 48.5902 34.4025 46.7281 34.4025C40.5127 34.4025 35.4562 39.459 35.4562 45.6745C35.4562 47.3024 35.8035 48.8503 36.427 50.2495H13.4902C13.0212 50.2495 12.6406 50.6296 12.6406 51.0991C12.6406 51.5682 13.0212 51.9487 13.4902 51.9487H37.3682C39.3936 54.9609 42.8332 56.9464 46.7281 56.9464C52.9435 56.9464 58 51.8899 58 45.6745C58 42.0424 56.2725 38.8064 53.5967 36.7438ZM46.7281 55.2472C41.4495 55.2472 37.1554 50.9531 37.1554 45.6745C37.1554 40.3958 41.4499 36.1018 46.7281 36.1018C52.0063 36.1018 56.3008 40.3958 56.3008 45.6745C56.3008 50.9531 52.0063 55.2472 46.7281 55.2472Z" fill="white"/>
<path d="M46.728 37.3293C42.1264 37.3293 38.3828 41.0733 38.3828 45.6745C38.3828 50.2761 42.1264 54.0197 46.728 54.0197C51.3296 54.0197 55.0728 50.2761 55.0728 45.6745C55.0728 41.0733 51.3292 37.3293 46.728 37.3293ZM47.4887 52.2753C47.5449 52.1616 47.5776 52.0341 47.5776 51.8987V50.8637C47.5776 50.3947 47.1971 50.0141 46.728 50.0141C46.259 50.0141 45.8784 50.3947 45.8784 50.8637V51.8987C45.8784 52.0341 45.9107 52.1616 45.9673 52.2753C42.9096 51.9253 40.4772 49.4928 40.1272 46.4351C40.2404 46.4918 40.3683 46.5241 40.5037 46.5241H41.5383C42.0078 46.5241 42.3879 46.144 42.3879 45.6745C42.3879 45.205 42.0078 44.8249 41.5383 44.8249H40.5037C40.3683 44.8249 40.2404 44.8576 40.1272 44.9138C40.4772 41.8561 42.9096 39.4236 45.9673 39.0736C45.9107 39.1873 45.8784 39.3148 45.8784 39.4502V40.4852C45.8784 40.9547 46.259 41.3348 46.728 41.3348C47.1971 41.3348 47.5776 40.9547 47.5776 40.4852V39.4502C47.5776 39.3148 47.5449 39.1873 47.4887 39.0736C50.5464 39.4236 52.9788 41.8561 53.3289 44.9138C53.2151 44.8576 53.0877 44.8249 52.9523 44.8249H51.9173C51.4482 44.8249 51.0677 45.205 51.0677 45.6745C51.0677 46.144 51.4482 46.5241 51.9173 46.5241H52.9523C53.0877 46.5241 53.2151 46.4918 53.3289 46.4351C52.9784 49.4928 50.5464 51.9253 47.4887 52.2753Z" fill="white"/>
<path d="M48.6012 44.8249H47.5781V43.9536C47.5781 43.4845 47.1976 43.104 46.7285 43.104C46.259 43.104 45.8789 43.4845 45.8789 43.9536V45.6745C45.8789 46.144 46.259 46.5241 46.7285 46.5241H48.6012C49.0703 46.5241 49.4508 46.144 49.4508 45.6745C49.4508 45.205 49.0703 44.8249 48.6012 44.8249Z" fill="white"/>
</g>
</svg>
