<svg width="95" height="95" viewBox="0 0 95 95" fill="none" xmlns="http://www.w3.org/2000/svg">
<g opacity="0.6">
<g clip-path="url(#clip0)">
<path d="M67.8869 25.2157C68.5764 21.0108 65.7163 17.0287 61.5114 16.3392C57.3058 15.6496 53.3238 18.5097 52.6343 22.7146C51.9447 26.9202 54.8048 30.9022 59.0103 31.5918C63.2152 32.2813 67.1973 29.4212 67.8869 25.2157ZM54.992 23.1012C55.4684 20.1962 58.2197 18.2206 61.1248 18.6969C64.0298 19.1733 66.0055 21.924 65.5292 24.8291C65.0527 27.7347 62.302 29.7105 59.3969 29.2341C56.4919 28.7578 54.5156 26.0063 54.992 23.1012Z" fill="#3D2E53"/>
<path d="M47.9334 17.7923C48.5846 17.8991 49.1988 17.4579 49.3056 16.8067C49.4123 16.1556 48.9712 15.5414 48.32 15.4346L45.2208 14.9264C44.5697 14.8196 43.9555 15.2608 43.8487 15.9119C43.7419 16.5631 44.1831 17.1773 44.8342 17.2841L47.9334 17.7923Z" fill="#3D2E53"/>
<path d="M21.5315 13.4631L37.1963 16.0318C37.8475 16.1386 38.4617 15.6974 38.5685 15.0462C38.6752 14.3951 38.2341 13.7808 37.5829 13.6741L21.9181 11.1054C21.2669 10.9987 20.6527 11.4398 20.546 12.091C20.4392 12.7422 20.8803 13.3564 21.5315 13.4631Z" fill="#3D2E53"/>
<path d="M19.8196 23.9063L23.8593 24.5687C24.5104 24.6755 25.1246 24.2343 25.2314 23.5831C25.3382 22.932 24.897 22.3178 24.2459 22.211L20.2062 21.5486C19.555 21.4418 18.9408 21.883 18.834 22.5341C18.7273 23.1853 19.1684 23.7995 19.8196 23.9063Z" fill="#3D2E53"/>
<path d="M31.8839 23.4634C31.2328 23.3566 30.6186 23.7978 30.5118 24.449C30.405 25.1001 30.8462 25.7143 31.4973 25.8211L34.051 26.2399C34.7022 26.3466 35.3164 25.9055 35.4231 25.2543C35.5299 24.6031 35.0888 23.9889 34.4376 23.8822L31.8839 23.4634Z" fill="#3D2E53"/>
<path d="M20.676 18.6846L47.077 23.0137C47.7282 23.1205 48.3424 22.6794 48.4492 22.0282C48.556 21.377 48.1148 20.7628 47.4636 20.656L21.0626 16.3269C20.4115 16.2202 19.7973 16.6613 19.6905 17.3125C19.5837 17.9637 20.0249 18.5779 20.676 18.6846Z" fill="#3D2E53"/>
<path d="M20.5627 38.7265L60.2204 45.2294C62.5745 45.6154 64.8033 44.0139 65.1893 41.6599C65.5753 39.3059 63.9745 37.0771 61.6205 36.6911L21.9628 30.1883C19.6088 29.8023 17.3794 31.403 16.9934 33.757C16.6074 36.111 18.2087 38.3405 20.5627 38.7265ZM21.5762 32.546L61.2339 39.0488C62.2874 39.2216 63.0045 40.2192 62.8316 41.2733C62.6588 42.3275 61.6606 43.0444 60.607 42.8717L20.9493 36.3688C19.8952 36.1959 19.1782 35.1977 19.3511 34.1436C19.5239 33.0895 20.522 32.3731 21.5762 32.546Z" fill="#3D2E53"/>
<path d="M18.7893 49.5402L58.447 56.043C60.801 56.429 63.0299 54.8276 63.4159 52.4736C63.8019 50.1196 62.2011 47.8908 59.8471 47.5048L20.1893 41.0019C17.8353 40.6159 15.6059 42.2166 15.2199 44.5707C14.8339 46.9247 16.4353 49.1542 18.7893 49.5402ZM19.8027 43.3596L59.4605 49.8625C60.514 50.0353 61.2309 51.0334 61.0582 52.087C60.8853 53.1411 59.8871 53.8581 58.8336 53.6853L19.1759 47.1825C18.1217 47.0096 17.4048 46.0114 17.5776 44.9573C17.7504 43.9037 18.7486 43.1868 19.8027 43.3596Z" fill="#3D2E53"/>
<path d="M17.0168 60.3536L56.6745 66.8564C59.0286 67.2424 61.2573 65.6416 61.6433 63.2876C62.0293 60.9336 60.4286 58.7042 58.0746 58.3182L18.4169 51.8153C16.0629 51.4293 13.8334 53.0307 13.4474 55.3847C13.0614 57.7387 14.6628 59.9676 17.0168 60.3536ZM18.0303 54.173L57.688 60.6759C58.7415 60.8487 59.4585 61.8469 59.2856 62.901C59.1129 63.9545 58.1147 64.6715 57.0611 64.4987L17.4034 57.9959C16.3493 57.823 15.6323 56.8248 15.8051 55.7713C15.9779 54.7171 16.9761 54.0002 18.0303 54.173Z" fill="#3D2E53"/>
<path d="M15.2434 71.1672L43.0622 75.7288C45.4162 76.1148 47.6456 74.5141 48.0316 72.1601C48.4176 69.8061 46.8163 67.5766 44.4623 67.1906L16.6434 62.629C14.2894 62.243 12.0599 63.8443 11.6739 66.1984C11.2879 68.5524 12.8894 70.7812 15.2434 71.1672ZM16.2568 64.9867L44.0757 69.5483C45.1298 69.7212 45.8462 70.7192 45.6733 71.7734C45.5004 72.8275 44.503 73.544 43.4488 73.3711L15.63 68.8095C14.5758 68.6367 13.8588 67.6391 14.0316 66.585C14.2045 65.5308 15.2027 64.8139 16.2568 64.9867Z" fill="#3D2E53"/>
<path d="M80.6657 76.5796L76.2108 75.8491L76.8559 71.9145C77.0208 70.9089 76.5558 69.9438 75.7529 69.4198L78.7788 61.7846C79.6476 59.5905 79.443 57.0722 78.2295 55.0476C77.0729 53.1181 75.1368 51.8027 72.9167 51.4386C72.5457 51.3778 72.1735 51.3471 71.803 51.3406L77.6956 15.4043C78.0497 13.245 76.5809 11.2 74.4216 10.8459L18.0861 1.60834C15.9268 1.25428 13.8818 2.7231 13.5278 4.88238L11.4539 17.5297C11.3471 18.1809 11.7883 18.7951 12.4395 18.9019C13.0906 19.0086 13.7049 18.5675 13.8116 17.9163L15.8855 5.26899C16.0264 4.40957 16.8401 3.82513 17.6995 3.96605L74.035 13.2037C74.8944 13.3446 75.4789 14.1583 75.3379 15.0177L69.3209 51.7126C68.382 52.0179 67.5004 52.5048 66.729 53.1618C65.6656 54.0687 64.8715 55.2493 64.4332 56.5759C64.2257 57.2024 64.566 57.8783 65.1919 58.085C65.8196 58.2927 66.4942 57.9522 66.7017 57.3258C67.0025 56.4144 67.5481 55.603 68.2791 54.9804C69.4554 53.9779 71.0048 53.5462 72.5301 53.7964C74.0554 54.0465 75.3859 54.9503 76.1803 56.276C77.014 57.6668 77.1548 59.3969 76.5575 60.9044L73.4197 68.8221L66.8884 67.7511L66.6154 62.526C66.5808 61.8674 66.0197 61.3616 65.36 61.3954C64.7008 61.4299 64.1948 61.9922 64.2294 62.6508L64.4866 67.5724C63.5577 67.8124 62.8089 68.5785 62.644 69.5841L61.9988 73.5187L57.5445 72.7883C55.5099 72.4547 53.583 73.8382 53.2493 75.8727L52.7568 78.8767C52.4232 80.9113 53.8073 82.8377 55.8419 83.1713L55.9046 83.1816L56.0995 86.4749C56.1344 87.0622 56.2665 87.622 56.4815 88.1386L5.27419 79.7419C4.41477 79.6009 3.83033 78.7872 3.97125 77.9278L12.9246 23.3259C13.0314 22.6747 12.5902 22.0605 11.939 21.9537C11.2879 21.847 10.6737 22.2881 10.5669 22.9393L1.61354 77.5412C1.25948 79.7005 2.7282 81.7461 4.88748 82.1002L72.1448 93.1129C74.5 93.4991 76.7701 92.2236 77.664 90.0109L78.9005 86.9523L78.9631 86.9626C80.9971 87.2961 82.924 85.9127 83.2576 83.8781L83.7502 80.8741C84.0838 78.8395 82.6997 76.9131 80.6657 76.5796ZM65.0017 69.9707C65.0111 69.9129 65.0662 69.8734 65.1239 69.8829L74.411 71.4057C74.4688 71.4152 74.5077 71.4701 74.4982 71.5279L73.853 75.4625L64.3565 73.9053L65.0017 69.9707ZM75.4491 89.1153C74.9759 90.2855 73.7766 90.9594 72.5314 90.7552L60.7257 88.8194C59.4805 88.6152 58.5592 87.5936 58.4844 86.3336L58.3219 83.578L76.4832 86.556L75.4491 89.1153ZM80.8999 83.4915C80.7796 84.2256 80.0838 84.7253 79.3497 84.6049L56.2285 80.8136C55.4944 80.6932 54.9947 79.9975 55.1151 79.2634L55.6077 76.2595C55.7281 75.5247 56.4238 75.0256 57.1579 75.146L80.2791 78.9373C81.0138 79.0578 81.513 79.7528 81.3925 80.4875L80.8999 83.4915Z" fill="#3D2E53"/>
</g>
</g>
</svg>
