<svg width="56" height="56" viewBox="0 0 56 56" fill="none" xmlns="http://www.w3.org/2000/svg">
<g clip-path="url(#clip0)">
<path d="M55.7449 19.8772C55.524 19.35 55.1109 18.9402 54.582 18.7241L50.8461 17.1954C50.3176 16.9792 49.7357 16.9813 49.2085 17.2026C48.6808 17.424 48.2715 17.8371 48.0549 18.3656L43.8021 28.7601V11.7745C43.8021 11.554 43.7145 11.3421 43.5586 11.1862L32.6155 0.24353C32.4596 0.0875854 32.2481 0 32.0276 0H0.831848C0.372559 0 0 0.372559 0 0.831848V7.25037C0 7.70966 0.372559 8.08221 0.831848 8.08221C1.29114 8.08221 1.66327 7.70966 1.66327 7.25037V1.66327H31.1954V11.7745C31.1954 12.2338 31.5679 12.6059 32.0272 12.6059H42.1389V32.8257L38.4722 41.7864C38.4261 41.8992 38.4051 42.0209 38.4116 42.1427L38.8029 49.9711C38.8191 50.2933 39.02 50.577 39.3186 50.6992C39.4203 50.741 39.5271 50.7611 39.6335 50.7611C39.8386 50.7611 40.0402 50.6855 40.1966 50.5415L42.1384 48.7539V54.3367H1.66327V10.5773C1.66327 10.118 1.29114 9.74548 0.831848 9.74548C0.372559 9.74548 0 10.118 0 10.5773V55.1682C0 55.6274 0.372559 56 0.831848 56H42.9703C43.4296 56 43.8021 55.6274 43.8021 55.1682V47.2227L45.9636 45.233C46.0533 45.1501 46.1233 45.0488 46.1699 44.936L49.9404 35.7203C50.1143 35.2952 49.9105 34.8094 49.4853 34.6356C49.0607 34.4617 48.5749 34.665 48.401 35.0901L44.945 43.5364L40.3265 41.6467L47.4235 24.3018L52.042 26.1915L49.5934 32.1759C49.4196 32.601 49.6229 33.0868 50.0485 33.2607C50.4736 33.4346 50.9589 33.2312 51.1328 32.8061L55.7526 21.5153C55.9688 20.9863 55.9662 20.4044 55.7449 19.8772ZM32.8591 2.83905L40.9626 10.9431H32.8591V2.83905ZM40.1381 43.3663L43.8743 44.895L40.3756 48.116L40.1381 43.3663ZM54.2128 20.8851L52.6717 24.6517L48.0532 22.762L49.5943 18.9954C49.6426 18.8779 49.734 18.786 49.8515 18.7369C49.9694 18.6873 50.0989 18.6865 50.2164 18.7347L53.9522 20.2634C54.0697 20.3113 54.1616 20.4027 54.2107 20.5202C54.2603 20.6381 54.2611 20.7676 54.2128 20.8851Z" fill="white"/>
<path d="M27.6775 9.07983H17.3651C16.9058 9.07983 16.5332 9.45197 16.5332 9.91125C16.5332 10.3705 16.9058 10.7431 17.3651 10.7431H27.6775C28.1368 10.7431 28.5093 10.3705 28.5093 9.91125C28.5093 9.45197 28.1368 9.07983 27.6775 9.07983Z" fill="white"/>
<path d="M6.43243 27.3207H13.0078C13.467 27.3207 13.8392 26.9481 13.8392 26.4888V20.5988L15.0803 19.0189C15.364 18.6578 15.3012 18.1349 14.9402 17.8512C14.5792 17.5675 14.0562 17.6303 13.7725 17.9913L12.9155 19.0821H6.43243C5.97314 19.0821 5.60059 19.4542 5.60059 19.9135V26.4888C5.60059 26.9481 5.97314 27.3207 6.43243 27.3207ZM7.26386 20.7454H11.6085L10.2849 22.43L9.3595 21.5041C9.03479 21.1794 8.508 21.1794 8.18329 21.5041C7.85858 21.8293 7.85858 22.3556 8.18329 22.6804L9.77179 24.2689C9.92817 24.4252 10.1401 24.5124 10.3597 24.5124C10.3763 24.5124 10.393 24.512 10.4097 24.5111C10.6468 24.497 10.8668 24.3816 11.0138 24.1945L12.1759 22.7158V25.6574H7.26386V20.7454Z" fill="white"/>
<path d="M36.5477 20.3737H18.7508C18.2915 20.3737 17.9189 20.7462 17.9189 21.2055C17.9189 21.6648 18.2915 22.0374 18.7508 22.0374H36.5477C37.0075 22.0374 37.3796 21.6648 37.3796 21.2055C37.3796 20.7462 37.0075 20.3737 36.5477 20.3737Z" fill="white"/>
<path d="M18.7508 26.0291H33.055C33.5143 26.0291 33.8864 25.6566 33.8864 25.1973C33.8864 24.738 33.5143 24.3658 33.055 24.3658H18.7508C18.2915 24.3658 17.9189 24.738 17.9189 25.1973C17.9189 25.6566 18.2915 26.0291 18.7508 26.0291Z" fill="white"/>
<path d="M5.60059 37.411C5.60059 37.8702 5.97314 38.2428 6.43243 38.2428H13.0078C13.467 38.2428 13.8392 37.8702 13.8392 37.411V31.5209L15.0803 29.941C15.364 29.58 15.3012 29.057 14.9402 28.7733C14.5792 28.4896 14.0562 28.5524 13.7725 28.9135L12.9155 30.0042H6.43243C5.97314 30.0042 5.60059 30.3763 5.60059 30.8356V37.411ZM7.26386 31.6675H11.6085L10.2849 33.3521L9.3595 32.4263C9.03479 32.1016 8.508 32.1016 8.18329 32.4263C7.85858 32.7514 7.85858 33.2778 8.18329 33.6025L9.77179 35.191C9.92817 35.3474 10.1401 35.4345 10.3597 35.4345C10.3763 35.4345 10.393 35.4341 10.4097 35.4332C10.6468 35.4191 10.8668 35.3038 11.0138 35.1166L12.1759 33.6379V36.5795H7.26386V31.6675Z" fill="white"/>
<path d="M36.5477 31.2958H18.7508C18.2915 31.2958 17.9189 31.6683 17.9189 32.1276C17.9189 32.5869 18.2915 32.959 18.7508 32.959H36.5477C37.0075 32.959 37.3796 32.5869 37.3796 32.1276C37.3796 31.6683 37.0075 31.2958 36.5477 31.2958Z" fill="white"/>
<path d="M18.7508 36.9512H24.0734C24.5327 36.9512 24.9048 36.5787 24.9048 36.1194C24.9048 35.6601 24.5327 35.288 24.0734 35.288H18.7508C18.2915 35.288 17.9189 35.6601 17.9189 36.1194C17.9189 36.5787 18.2915 36.9512 18.7508 36.9512Z" fill="white"/>
<path d="M5.60059 48.3331C5.60059 48.7924 5.97314 49.1649 6.43243 49.1649H13.0078C13.467 49.1649 13.8392 48.7924 13.8392 48.3331V41.7582C13.8392 41.2989 13.467 40.9263 13.0078 40.9263H6.43243C5.97314 40.9263 5.60059 41.2989 5.60059 41.7582V48.3331ZM7.26385 42.5896H12.1759V47.5012H7.26385V42.5896Z" fill="white"/>
<path d="M37.3796 43.0497C37.3796 42.5905 37.0075 42.2179 36.5477 42.2179H18.7508C18.2915 42.2179 17.9189 42.5905 17.9189 43.0497C17.9189 43.509 18.2915 43.8812 18.7508 43.8812H36.5477C37.0075 43.8812 37.3796 43.509 37.3796 43.0497Z" fill="white"/>
<path d="M18.7508 46.2097C18.2915 46.2097 17.9189 46.5822 17.9189 47.0415C17.9189 47.5008 18.2915 47.8734 18.7508 47.8734H33.8864C34.3461 47.8734 34.7183 47.5008 34.7183 47.0415C34.7183 46.5822 34.3461 46.2097 33.8864 46.2097H18.7508Z" fill="white"/>
</g>
</svg>
