<svg width="84" height="84" viewBox="0 0 84 84" fill="none" xmlns="http://www.w3.org/2000/svg">
<g opacity="0.6">
<g clip-path="url(#clip0)">
<path d="M83.9999 70.148V59.9152L80.0803 58.9136C80.0532 58.8475 80.026 58.7813 79.9976 58.7158L82.0609 55.2381L74.825 48.0022L71.3473 50.0655C71.2805 50.0371 71.2143 50.01 71.1495 49.9828L70.1479 46.0645H59.9152L58.9136 49.9842C58.8474 50.0113 58.7813 50.0384 58.7158 50.0668L55.2381 48.0035L48.0021 55.2394L50.0655 58.7172C50.037 58.784 50.0099 58.8501 49.9828 58.915L46.0645 59.9165V70.1493L49.9841 71.1509C50.0112 71.217 50.0383 71.2832 50.0668 71.3487L48.0034 74.8264L55.2394 82.0623L58.7171 79.999C58.7839 80.0274 58.8501 80.0546 58.9149 80.0817L59.9165 84H70.1492L71.1508 80.0804C71.2169 80.0532 71.2831 80.0261 71.3486 79.9977L74.8263 82.061L82.0623 74.8251L79.9989 71.3473C80.0274 71.2805 80.0545 71.2144 80.0816 71.1495L83.9999 70.148ZM78.658 74.3984L74.3983 78.658L71.5027 76.94L70.8511 77.2516C70.431 77.4507 70.0017 77.6307 69.5598 77.7868L68.8771 78.0289L68.0455 81.2903H62.0202L61.1886 78.0289L60.5059 77.7868C60.064 77.632 59.6333 77.452 59.2146 77.2516L58.563 76.94L55.6674 78.658L51.4077 74.3984L53.1258 71.5028L52.8142 70.8512C52.615 70.4311 52.4351 70.0018 52.279 69.5598L52.0369 68.8771L48.7741 68.0456V62.0203L52.0355 61.1887L52.2777 60.506C52.4325 60.0641 52.6124 59.6334 52.8128 59.2147L53.1244 58.563L51.4064 55.6675L55.6661 51.4078L58.5616 53.1258L59.2133 52.8142C59.6333 52.6151 60.0627 52.4352 60.5046 52.279L61.1873 52.0369L62.0189 48.7742H68.0442L68.8757 52.0356L69.5585 52.2777C70.0004 52.4325 70.431 52.6125 70.8498 52.8129L71.5014 53.1245L74.397 51.4065L78.6567 55.6661L76.9386 58.5617L77.2502 59.2133C77.4493 59.6334 77.6293 60.0627 77.7854 60.5047L78.0275 61.1874L81.2903 62.0189V68.0443L78.0288 68.8758L77.7867 69.5585C77.6319 70.0004 77.452 70.4311 77.2515 70.8499L76.9399 71.5015L78.658 74.3984Z" fill="#3D2E53"/>
<path d="M65.0321 54.1935C59.0557 54.1935 54.1934 59.0558 54.1934 65.0322C54.1934 71.0086 59.0557 75.8709 65.0321 75.8709C71.0084 75.8709 75.8708 71.0086 75.8708 65.0322C75.8708 59.0558 71.0084 54.1935 65.0321 54.1935ZM65.0321 73.1612C60.5488 73.1612 56.903 69.5155 56.903 65.0322C56.903 60.5489 60.5488 56.9032 65.0321 56.9032C69.5153 56.9032 73.1611 60.5489 73.1611 65.0322C73.1611 69.5155 69.5153 73.1612 65.0321 73.1612Z" fill="#3D2E53"/>
<path d="M65.0317 59.6129C62.0428 59.6129 59.6123 62.0435 59.6123 65.0323C59.6123 68.0211 62.0428 70.4517 65.0317 70.4517C68.0205 70.4517 70.451 68.0211 70.451 65.0323C70.451 62.0435 68.0205 59.6129 65.0317 59.6129ZM65.0317 67.742C63.5372 67.742 62.322 66.5267 62.322 65.0323C62.322 63.5379 63.5372 62.3226 65.0317 62.3226C66.5261 62.3226 67.7414 63.5379 67.7414 65.0323C67.7414 66.5267 66.5261 67.742 65.0317 67.742Z" fill="#3D2E53"/>
<path d="M34.3118 22.9403C34.7656 24.2707 35.5555 25.4436 36.5809 26.3651V27.5142L30.1388 29.9295C27.5092 30.9145 25.7422 33.4635 25.7422 36.2717V43.3548H58.2583V36.2717C58.2583 33.4635 56.4913 30.9145 53.863 29.9282L47.4196 27.5129V26.3651C48.445 25.4449 49.2349 24.272 49.6887 22.9403C52.2416 22.5024 54.1938 20.2875 54.1938 17.6129V12.1936C54.1938 5.47096 48.7242 0 42.0003 0C35.2763 0 29.8067 5.47096 29.8067 12.1936V17.6129C29.8067 20.2875 31.7589 22.5024 34.3118 22.9403ZM44.7099 28.0765L42.0003 32.5922L39.2906 28.0765V27.9773C40.14 28.2796 41.049 28.4516 42.0003 28.4516C42.9516 28.4516 43.8605 28.2783 44.7099 27.9773V28.0765ZM37.3542 30.1167L40.0857 34.6675L37.3721 36.0236L35.619 30.767L37.3542 30.1167ZM55.5486 36.2717V40.6452H28.4519V36.2717C28.4519 34.5861 29.5117 33.0579 31.0894 32.4659L33.0813 31.7196L35.7897 39.846L42.0003 36.7407L48.2108 39.846L50.9192 31.7196L52.9124 32.4672C54.4889 33.0579 55.5486 34.5861 55.5486 36.2717ZM48.3815 30.767L46.6284 36.025L43.9148 34.6688L46.6463 30.1167L48.3815 30.767ZM42.0003 25.7419C39.0114 25.7419 36.5809 23.3114 36.5809 20.3226V14.8113C38.5642 14.6022 40.4357 13.8792 42.0003 12.6487C43.5648 13.8805 45.4363 14.6022 47.4196 14.8113V20.3226C47.4196 23.3114 44.9891 25.7419 42.0003 25.7419ZM50.1293 19.9462V15.281C50.9357 15.7513 51.4841 16.616 51.4841 17.6142C51.4841 18.6125 50.9357 19.4758 50.1293 19.9462ZM42.0003 2.70968C47.2284 2.70968 51.4841 6.96406 51.4841 12.1936V12.947C50.6837 12.4807 49.7661 12.1936 48.7744 12.1936H48.5416C46.4319 12.1936 44.4486 11.3726 42.9582 9.8808L42.0003 8.92156L41.0423 9.8808C39.5506 11.3726 37.5686 12.1936 35.4589 12.1936H35.2261C34.2344 12.1936 33.3168 12.4807 32.5164 12.947V12.1936C32.5164 6.96406 36.7721 2.70968 42.0003 2.70968ZM33.8712 15.2796V19.9448C33.0648 19.4745 32.5164 18.6098 32.5164 17.6116C32.5164 16.6133 33.0648 15.75 33.8712 15.2796Z" fill="#3D2E53"/>
<path d="M0 83.9999H27.0968V48.7741H0L0 83.9999ZM2.70968 51.4838H24.3871V81.2902H2.70968L2.70968 51.4838Z" fill="#3D2E53"/>
<path d="M5.41895 54.1935H21.677V56.9032H5.41895V54.1935Z" fill="#3D2E53"/>
<path d="M5.41895 59.6129H8.12862V62.3226H5.41895V59.6129Z" fill="#3D2E53"/>
<path d="M10.8389 59.6129H21.6776V62.3226H10.8389V59.6129Z" fill="#3D2E53"/>
<path d="M5.41895 65.0323H21.677V67.742H5.41895V65.0323Z" fill="#3D2E53"/>
<path d="M5.41895 70.4515H21.677V73.1612H5.41895V70.4515Z" fill="#3D2E53"/>
<path d="M18.9678 75.871H21.6774V78.5807H18.9678V75.871Z" fill="#3D2E53"/>
<path d="M5.41895 75.871H16.2577V78.5807H5.41895V75.871Z" fill="#3D2E53"/>
<path d="M36.1837 60.5707L34.2679 58.6549L27.8906 65.0322L34.2679 71.4094L36.1837 69.4936L33.0771 66.387H43.3548V63.6773H33.0771L36.1837 60.5707Z" fill="#3D2E53"/>
<path d="M14.903 21.6773C14.903 20.9311 15.5103 20.3225 16.2579 20.3225H22.4711L19.3645 23.4291L21.2803 25.3449L27.6576 18.9677L21.2803 12.5904L19.3645 14.5062L22.4711 17.6128H16.2579C14.0172 17.6128 12.1934 19.4367 12.1934 21.6773V46.0644H14.903V21.6773Z" fill="#3D2E53"/>
<path d="M65.0323 21.6775V38.7294L61.9257 35.6228L60.0099 37.5386L66.3872 43.9159L72.7644 37.5386L70.8486 35.6228L67.742 38.7294V21.6775C67.742 19.4368 65.9181 17.6129 63.6775 17.6129H56.9033V20.3226H63.6775C64.4251 20.3226 65.0323 20.9312 65.0323 21.6775Z" fill="#3D2E53"/>
</g>
</g>
</svg>
