<svg width="64" height="64" viewBox="0 0 64 64" fill="none" xmlns="http://www.w3.org/2000/svg">
<g clip-path="url(#clip0)">
<path d="M59.791 22.9775H37.6003C36.6128 19.5386 34.6738 16.4033 31.9587 13.9722C27.8434 10.2871 22.528 8.59524 16.9901 9.20736C8.10886 10.1897 1.006 17.3588 0.101124 26.254C-0.393 31.1097 0.934872 35.9103 3.83974 39.7714C6.62361 43.4714 10.6184 46.0293 15.1151 46.9984L19.8457 51.7289C20.2428 52.1262 20.7701 52.3365 21.308 52.3364C21.5752 52.3364 21.845 52.2844 22.1027 52.1777C22.8795 51.8559 23.3811 51.1049 23.3811 50.2643V46.9524C24.159 46.7785 24.9167 46.558 25.6526 46.2953V46.4265C25.6526 48.7473 27.5407 50.6354 29.8614 50.6354H36.9288L40.6937 54.4003C41.0304 54.737 41.4773 54.9154 41.9332 54.9154C42.1597 54.9154 42.3883 54.8713 42.6068 54.7809C43.2652 54.5081 43.6905 53.8715 43.6905 53.1589V50.6354H59.7911C62.1119 50.6354 64 48.7473 64 46.4265V27.1861C63.9999 24.8656 62.1118 22.9775 59.791 22.9775ZM22.2031 45.1454C21.725 45.2307 21.377 45.6463 21.377 46.1319V50.2644C21.377 50.2883 21.377 50.309 21.3357 50.3262C21.2945 50.343 21.28 50.3285 21.2628 50.3118L16.3205 45.3694C16.1803 45.2293 16.0017 45.1337 15.8072 45.0952C11.6717 44.2733 7.99036 41.9547 5.44124 38.5666C2.84062 35.1098 1.65212 30.8092 2.09487 26.4568C2.48499 22.6212 4.22162 18.9727 6.98474 16.1831C9.74835 13.3931 13.3797 11.6232 17.2103 11.1996C17.8768 11.1259 18.5388 11.0894 19.196 11.0894C23.4326 11.0894 27.4314 12.6086 30.6216 15.4652C34.2568 18.7205 36.3417 23.384 36.3417 28.2601C36.3418 36.5828 30.3957 43.684 22.2031 45.1454ZM61.9956 46.4267C61.9956 47.6423 61.0066 48.6313 59.791 48.6313H42.6884C42.135 48.6313 41.6863 49.0799 41.6863 49.6334V52.5588L38.0524 48.9249C37.8646 48.7369 37.6097 48.6314 37.3439 48.6314H29.8616C28.6459 48.6314 27.6569 47.6424 27.6569 46.4268V45.4495C34.0719 42.2965 38.3461 35.7176 38.3461 28.2602C38.3461 27.1537 38.2484 26.0575 38.0611 24.9817H59.7911C61.0068 24.9817 61.9958 25.9707 61.9958 27.1863V46.4267H61.9956Z" fill="white"/>
<path d="M56.2235 30.7533C55.8322 30.3619 55.1977 30.3619 54.8063 30.7533L44.8257 40.7339L40.1921 36.1003C39.8007 35.7089 39.1662 35.7089 38.775 36.1003C38.3836 36.4917 38.3836 37.1262 38.775 37.5174L44.1171 42.8595C44.3127 43.0552 44.5692 43.153 44.8256 43.153C45.082 43.153 45.3386 43.0553 45.5342 42.8595L56.2233 32.1704C56.6148 31.7791 56.6148 31.1446 56.2235 30.7533Z" fill="white"/>
<path d="M19.1731 35.8079C19.1727 35.8079 19.1722 35.8079 19.1717 35.8079C18.6183 35.8079 18.1689 36.2573 18.1689 36.8107C18.1689 36.8108 18.1689 36.8111 18.1689 36.8113C18.1689 36.8116 18.1689 36.8117 18.1689 36.8119C18.1689 37.3653 18.6183 37.8147 19.1717 37.8147C19.1721 37.8147 19.1727 37.8147 19.1731 37.8147C19.7264 37.8147 20.1758 37.3653 20.1758 36.8119C20.1758 36.8118 20.1758 36.8116 20.1758 36.8113C20.1758 36.8111 20.1758 36.8109 20.1758 36.8107C20.1758 36.2573 19.7264 35.8079 19.1731 35.8079Z" fill="white"/>
<path d="M23.6371 20.5891C22.4232 19.3751 20.8375 18.7066 19.1723 18.7067C15.673 18.707 12.8262 21.5542 12.8262 25.0533C12.8262 25.6067 13.2748 26.0554 13.8283 26.0554C14.3817 26.0554 14.8304 25.6068 14.8304 25.0533C14.8304 22.6591 16.7783 20.711 19.1725 20.7108C20.3024 20.7108 21.3847 21.1707 22.22 22.0061C23.0554 22.8415 23.5154 23.9238 23.5154 25.0537C23.5153 26.9571 22.2434 28.6676 20.4227 29.2136C19.0757 29.6174 18.1709 30.8243 18.1709 32.2166V32.5358C18.1709 33.0892 18.6195 33.5379 19.173 33.5379C19.7264 33.5379 20.1752 33.0893 20.1752 32.5358V32.2166C20.1752 31.7163 20.506 31.2809 20.9985 31.1333C23.6604 30.3351 25.5196 27.8352 25.5198 25.0538C25.5196 23.3887 24.8511 21.803 23.6371 20.5891Z" fill="white"/>
</g>
</svg>
