<svg width="109" height="109" viewBox="0 0 109 109" fill="none" xmlns="http://www.w3.org/2000/svg">
<g opacity="0.6">
<g clip-path="url(#clip0)">
<path d="M100.372 59.2529L84.1108 49.1345C86.3191 44.1936 87.1359 38.6973 86.417 33.3018C85.5331 26.6805 82.3961 20.5134 77.5831 15.9361C77.0546 15.4338 76.2188 15.4549 75.7172 15.9832C75.2149 16.5118 75.2359 17.3476 75.7644 17.8498C84.8725 26.5111 86.6571 40.5566 80.0074 51.2459C72.2408 63.7307 55.7668 67.5682 43.2832 59.8006C30.7989 52.0331 26.9607 35.5564 34.7274 23.0716C42.4933 10.587 58.968 6.7493 71.4475 14.5143L71.5344 14.5689C72.1525 14.9558 72.9667 14.7696 73.3536 14.1515C73.7412 13.5339 73.5542 12.7191 72.9368 12.3322L72.8458 12.275C59.1258 3.73871 41.0208 7.95618 32.4853 21.6767C32.2172 22.1077 31.9621 22.5426 31.7192 22.9818L3.47866 29.5602C2.76895 29.7256 2.32728 30.4355 2.4926 31.1452L3.81706 36.831C3.98254 37.5413 4.69247 37.983 5.40219 37.8177C6.11257 37.6522 6.55357 36.9424 6.38809 36.232L5.36325 31.8325L30.2561 26.0339C29.5953 27.6426 29.0875 29.287 28.7287 30.9496L12.7127 34.6804C12.003 34.8457 11.5611 35.555 11.7266 36.2654C11.8921 36.9758 12.6019 37.4168 13.3116 37.2515L28.2637 33.7684C28.1353 34.8868 28.0724 36.0076 28.0732 37.1262L14.0437 40.3943C13.334 40.5596 12.8921 41.2689 13.0576 41.9792C13.2229 42.689 13.9329 43.1306 14.6426 42.9653L28.1968 39.8079C28.2956 40.884 28.4537 41.9532 28.6696 43.0105L15.3745 46.1075C14.6648 46.2728 14.2231 46.9827 14.3886 47.6931C14.5539 48.4028 15.2639 48.8445 15.9736 48.6792L29.3135 45.5717C30.4151 49.2524 32.2345 52.7265 34.7205 55.7593L32.5585 56.2629C31.8482 56.4284 31.4072 57.1382 31.5726 57.8486L40.4377 95.9052C40.6032 96.6156 41.3125 97.0574 42.0228 96.8919L52.307 94.4963C53.0174 94.3308 53.4584 93.6211 53.2929 92.9107L46.6611 64.4412C48.0045 64.9689 49.3714 65.3917 50.7515 65.7104L56.8923 92.0722C57.0578 92.7826 57.7677 93.2243 58.4775 93.0589L68.7616 90.6633C69.472 90.4978 69.913 89.7881 69.7475 89.0777L64.2837 65.6223C65.2837 65.3788 66.2704 65.0847 67.2409 64.7387L71.8667 84.5966C72.0321 85.3069 72.7414 85.7488 73.4518 85.5833C74.1615 85.418 74.6032 84.708 74.4377 83.9976L69.7155 63.726C73.5824 61.9358 77.092 59.2901 79.9286 55.8616L96.1865 65.9779C97.0853 66.5366 98.1478 66.7126 99.1775 66.4727C100.208 66.2327 101.083 65.6053 101.642 64.7071C102.795 62.8545 102.226 60.4079 100.372 59.2529ZM50.4224 92.2241L42.7093 94.0208L34.4431 58.5352L36.7591 57.9957C38.2824 59.5022 39.9944 60.8638 41.8883 62.0427C42.4596 62.398 43.0394 62.7296 43.6243 63.0408L50.4224 92.2241ZM59.1646 90.1876L53.5809 66.2174C56.2909 66.5666 59.0212 66.5306 61.6921 66.13L66.8777 88.3909L59.1646 90.1876ZM99.4012 63.312C99.2148 63.6116 98.9226 63.8209 98.5791 63.9009C98.2356 63.9809 97.8811 63.9223 97.5821 63.7357L81.525 53.7455C81.7731 53.3835 82.0152 53.0165 82.2488 52.6409C82.482 52.2661 82.7057 51.8872 82.9205 51.5033L98.9764 61.4945C99.5947 61.8791 99.7855 62.6951 99.4012 63.312Z" fill="#3D2E53"/>
<path d="M74.144 88.553C73.4343 88.7183 72.9924 89.4276 73.1579 90.1379L73.8368 93.0524L22.4147 105.031L7.68592 41.8021C7.52044 41.0917 6.81133 40.6506 6.10095 40.8161C5.39124 40.9814 4.9494 41.6906 5.11488 42.401L20.1431 106.915C20.3086 107.626 21.0184 108.067 21.7281 107.901L75.7213 95.324C76.4316 95.1586 76.8728 94.4494 76.7073 93.7391L75.7289 89.539C75.5635 88.8286 74.8544 88.3875 74.144 88.553Z" fill="#3D2E53"/>
<path d="M17.8561 71.8849L24.3254 99.6568C24.4907 100.367 25.2007 100.808 25.9104 100.643L36.1952 98.2471C36.9049 98.0818 37.3466 97.3718 37.1813 96.6621L30.712 68.8902C30.5466 68.1805 29.8367 67.7388 29.127 67.9042L18.8422 70.2999C18.1324 70.4653 17.6908 71.1752 17.8561 71.8849ZM20.7267 72.5722L28.4405 70.7753L34.3106 95.9748L26.5968 97.7717L20.7267 72.5722Z" fill="#3D2E53"/>
<path d="M26.9171 52.1533C27.6275 51.9878 28.0685 51.2781 27.903 50.5677C27.7377 49.858 27.0284 49.4161 26.318 49.5816L16.7054 51.8208C15.9957 51.9861 15.5541 52.6961 15.7194 53.4058C15.8849 54.1162 16.5948 54.5578 17.3045 54.3925L26.9171 52.1533Z" fill="#3D2E53"/>
<path d="M51.9193 13.7675C45.6631 15.2248 40.3534 19.024 36.9691 24.4648C33.5848 29.9055 32.5232 36.3483 33.9807 42.6051C35.4382 48.862 39.2376 54.1724 44.6778 57.5575C50.1187 60.9425 56.5601 62.0043 62.8163 60.547C69.0725 59.0897 74.3816 55.2906 77.7666 49.8497C81.1509 44.4089 82.2117 37.9664 80.7542 31.7095C79.2967 25.4526 75.498 20.1421 70.0578 16.7569C64.6169 13.372 58.1755 12.3101 51.9193 13.7675ZM75.5245 48.4548C72.5125 53.2971 67.7865 56.678 62.2173 57.9753C56.6473 59.2728 50.9145 58.3282 46.0727 55.3155C41.2303 52.3028 37.8493 47.5761 36.5518 42.0062C35.2541 36.4356 36.1984 30.7014 39.211 25.859C42.3246 20.8533 47.1852 17.5801 52.5181 16.3378C57.851 15.0956 63.6576 15.8839 68.6628 18.9984C73.5045 22.0111 76.8856 26.7378 78.1832 32.3084C79.4807 37.8783 78.5365 43.6126 75.5245 48.4548Z" fill="#3D2E53"/>
</g>
</g>
</svg>
