<svg width="83" height="83" viewBox="0 0 83 83" fill="none" xmlns="http://www.w3.org/2000/svg">
<g opacity="0.6">
<g clip-path="url(#clip0)">
<path d="M17.8055 80.4399L15.365 77.0022C14.8469 76.272 13.8348 76.1004 13.1047 76.6186C12.3747 77.1369 12.2029 78.1488 12.7213 78.8789L15.1619 82.3168C15.478 82.7621 15.9776 82.9996 16.4851 82.9996C16.8097 82.9996 17.1373 82.9023 17.4221 82.7002C18.1521 82.1819 18.3239 81.17 17.8055 80.4399Z" fill="#3D2E53"/>
<path d="M36.5077 81.0455L33.8517 68.3867C32.5602 62.2311 28.9743 56.9085 23.7551 53.399L18.0844 49.5858C15.8105 48.0572 12.7541 48.3859 10.8535 50.3239V30.7905C10.8535 28.2266 9.10549 26.0481 6.60253 25.4926C4.98711 25.1337 3.32096 25.5224 2.03041 26.5578C0.740026 27.5932 0 29.136 0 30.7905V55.9258C0 59.2187 1.00767 62.3787 2.9139 65.064L5.80479 69.1363C6.1209 69.5816 6.62052 69.8191 7.12808 69.8191C7.45262 69.8191 7.78025 69.7219 8.06507 69.5197C8.79505 69.0014 8.96688 67.9896 8.44846 67.2594L5.55757 63.1871C4.04283 61.0532 3.24217 58.5424 3.24217 55.9256V30.7905C3.24217 30.1245 3.54013 29.5035 4.05953 29.0865C4.57876 28.6698 5.2494 28.5133 5.90011 28.6578C6.90762 28.8813 7.61133 29.7583 7.61133 30.7905V50.7324C7.61133 53.5554 8.6485 56.2449 10.5327 58.3374C10.6134 58.4342 10.6964 58.53 10.7841 58.6229C11.8607 59.7637 13.1264 61.1079 14.3186 62.3749L15.9875 64.1511C15.9928 64.1568 15.9987 64.1617 16.0042 64.1672C17.4319 65.6857 18.4848 66.807 18.5068 66.8303C19.1194 67.4828 20.1456 67.5152 20.7982 66.9023C21.4509 66.2894 21.4831 65.2635 20.87 64.6109C20.8405 64.5794 18.9429 62.5588 16.7758 60.2554L13.0588 56.2994C13.0494 56.2894 13.0408 56.2788 13.0314 56.2688C12.1599 55.2264 12.1708 53.7151 13.0843 52.6837C13.8924 51.7717 15.2645 51.5966 16.2756 52.2764L21.946 56.0895C26.4604 59.125 29.5617 63.7285 30.6786 69.0525L33.3347 81.7114C33.4951 82.4754 34.169 82.9999 34.9197 82.9999C35.0299 82.9999 35.1419 82.9885 35.2541 82.965C36.1303 82.7812 36.6915 81.9217 36.5077 81.0455Z" fill="#3D2E53"/>
<path d="M12.0108 72.2773L12.0004 72.2627C11.48 71.5339 10.4678 71.3647 9.73912 71.8847C9.01044 72.4047 8.8412 73.4171 9.36108 74.1458L9.37146 74.1604C9.68789 74.6037 10.1864 74.8401 10.6925 74.8401C11.0183 74.8401 11.3472 74.7422 11.6327 74.5384C12.3612 74.0183 12.5306 73.006 12.0108 72.2773Z" fill="#3D2E53"/>
<path d="M80.9692 26.5582C79.6788 25.5228 78.0118 25.1348 76.3972 25.493C73.8943 26.0484 72.1461 28.227 72.1461 30.7909V50.3244C70.2457 48.3864 67.189 48.0576 64.9152 49.5863L59.2445 53.3993C54.0251 56.9086 50.4394 62.2314 49.1479 68.387L46.4919 81.0459C46.3081 81.9221 46.8693 82.7815 47.7455 82.9653C47.8577 82.9888 47.9698 83.0002 48.0799 83.0002C48.8308 83.0002 49.5045 82.4756 49.6649 81.7116L52.3208 69.0526C53.4379 63.7288 56.5391 59.1251 61.0535 56.0898L66.7242 52.2768C67.735 51.5969 69.107 51.772 69.9155 52.684C70.8278 53.7141 70.84 55.223 69.9717 56.2653C69.9614 56.2767 69.9515 56.2884 69.9411 56.2997C69.9411 56.2997 62.1591 64.5801 62.1297 64.6112C61.5168 65.2638 61.549 66.2897 62.2015 66.9026C62.8542 67.5155 63.88 67.4833 64.4929 66.8306C64.515 66.8073 71.1391 59.7641 72.2156 58.6234C72.3033 58.5305 72.3863 58.4347 72.4671 58.3379C74.3511 56.2454 75.3884 53.5558 75.3884 50.7329V30.7907C75.3884 29.7586 76.0921 28.8816 77.0998 28.658C77.7504 28.5138 78.4208 28.6702 78.9404 29.0868C79.4598 29.5036 79.7578 30.1246 79.7578 30.7907V55.926C79.7578 58.5428 78.9571 61.0537 77.4424 63.1875L65.1949 80.4403C64.6766 81.1703 64.8483 82.1823 65.5783 82.7006C65.8632 82.9027 66.1907 83 66.5152 83C67.0226 83 67.5224 82.7623 67.8385 82.3172L80.086 65.0644C81.9923 62.3791 82.9999 59.2191 82.9999 55.9262V30.7907C82.9994 29.1363 82.2596 27.5936 80.9692 26.5582Z" fill="#3D2E53"/>
<path d="M62.0325 31.0697L59.1484 30.3808V29.8636C61.0229 28.5506 62.252 26.3762 62.252 23.919V20.1695C62.252 16.1689 58.9974 12.9142 54.9967 12.9142C53.2013 12.9142 51.5575 13.5711 50.2894 14.6553C48.8774 11.1975 45.4799 8.75385 41.5206 8.75385C37.5564 8.75385 34.1553 11.2038 32.7466 14.6682C31.4765 13.5763 29.8267 12.9139 28.0241 12.9139C24.0234 12.9139 20.7687 16.1685 20.7687 20.1692V20.4184V23.9186C20.7687 26.3759 21.9978 28.5502 23.8723 29.8633V30.3805L20.9882 31.0694C17.5447 31.8921 15.1396 34.9393 15.1396 38.4797V41.5073C15.1396 42.4026 15.8656 43.1284 16.7607 43.1284H24.21C24.1984 43.325 24.1905 43.5226 24.1905 43.7218V49.5509C24.1905 50.4463 24.9164 51.172 25.8116 51.172H35.5559C36.4511 51.172 37.177 50.4463 37.177 49.5509C37.177 48.6556 36.4511 47.9299 35.5559 47.9299H33.881V44.5799C33.881 43.6846 33.1551 42.9588 32.26 42.9588C31.3648 42.9588 30.6389 43.6846 30.6389 44.5799V47.9302H27.4328V43.7222C27.4328 40.5956 29.5565 37.9031 32.5967 37.1746L37.0452 36.1086L40.0224 42.8818C40.2811 43.4704 40.8634 43.8506 41.5061 43.8506H41.5063C42.1492 43.8506 42.7315 43.4706 42.9903 42.882L45.9643 36.1188L50.3988 37.1782C53.4419 37.9052 55.5673 40.598 55.5673 43.7269V47.9302H52.3613V44.5799C52.3613 43.6846 51.6354 42.9588 50.7402 42.9588C49.845 42.9588 49.1191 43.6846 49.1191 44.5799V47.9302H47.2819C46.3868 47.9302 45.6608 48.6559 45.6608 49.5513C45.6608 50.4466 46.3868 51.1724 47.2819 51.1724H57.1886C58.0837 51.1724 58.8096 50.4466 58.8096 49.5513V43.7269C58.8096 43.526 58.8015 43.3269 58.7899 43.1287H66.2602C67.1553 43.1287 67.8812 42.4029 67.8812 41.5076V38.4801C67.8812 34.9396 65.4762 31.8923 62.0325 31.0697ZM54.9967 16.1561C57.1206 16.1561 58.8643 17.8146 59.0011 19.9045H56.7473C54.8526 19.9045 52.988 19.4483 51.3119 18.5797C51.9284 17.1551 53.3482 16.1561 54.9967 16.1561ZM50.9835 23.682C50.9855 23.603 50.9895 23.5244 50.9895 23.445V22.0012C52.8085 22.754 54.7647 23.1467 56.7473 23.1467H59.0098V23.9188C59.0098 26.1316 57.2096 27.932 54.9967 27.932C52.7837 27.932 50.9835 26.1316 50.9835 23.9186V23.682ZM35.294 18.2226C35.294 14.7893 38.0871 11.996 41.5206 11.996C44.6173 11.996 47.1931 14.2685 47.6687 17.2331L44.9396 15.6297C44.257 15.2286 43.3845 15.3792 42.876 15.9863C41.5423 17.5779 39.5865 18.4907 37.5098 18.4907H35.294V18.2226ZM28.0242 16.1561C29.6727 16.1561 31.0923 17.1553 31.7089 18.5796C30.0327 19.4482 28.1683 19.9043 26.2736 19.9043H24.0198C24.1566 17.8146 25.9004 16.1561 28.0242 16.1561ZM24.0111 23.1465H26.2736C28.2583 23.1465 30.2166 22.7531 32.0374 21.9986V23.9185C32.0374 26.1313 30.2372 27.9316 28.0242 27.9316C25.8113 27.9316 24.0111 26.1316 24.0111 23.9186V23.1465ZM31.8412 34.0216C28.6519 34.7858 26.1454 37.0094 24.9524 39.8863H18.3818V38.4799C18.3818 36.4461 19.7633 34.6955 21.7415 34.2229L25.8701 33.2366C26.5998 33.0624 27.1146 32.4102 27.1146 31.66V31.115C27.4129 31.1524 27.716 31.174 28.0242 31.174C28.3301 31.174 28.6311 31.1527 28.9272 31.1158V31.5783C28.926 31.6024 28.9255 31.6266 28.9254 31.6507C28.9251 32.1826 29.1865 32.7036 29.6667 33.0142C29.8476 33.1314 30.0431 33.2076 30.2427 33.2457L32.6609 33.8251L31.8412 34.0216ZM36.3631 31.505C35.9466 31.3213 35.5125 31.1745 35.0651 31.0673L32.1692 30.3733V29.8682C32.6918 29.503 33.1644 29.0713 33.5742 28.5846C34.2981 29.6999 35.2494 30.6536 36.3631 31.38V31.505ZM43.4038 33.8869L41.5068 38.2014L39.6054 33.8758V32.719C40.2242 32.8466 40.8647 32.9139 41.5206 32.9139C42.1653 32.9139 42.7949 32.8486 43.4038 32.7252V33.8869ZM41.5206 29.6716C38.0871 29.6717 35.294 26.8784 35.294 23.445V21.7328H37.5098C40.0806 21.7328 42.5248 20.7768 44.3982 19.0717L47.7412 21.0359V23.6821C47.616 27.0058 44.8746 29.6716 41.5206 29.6716ZM46.646 31.5102V31.4004C47.7687 30.6745 48.7284 29.7184 49.4581 28.5982C49.8651 29.0794 50.3336 29.5064 50.8512 29.8682V30.3733L47.9552 31.0673C47.5038 31.1756 47.066 31.3242 46.646 31.5102ZM64.6389 39.8863H58.0459C56.8519 37.0094 54.3435 34.7871 51.1523 34.0247L50.3383 33.8303L52.7695 33.2477C52.9718 33.2101 53.1705 33.1329 53.3539 33.0142C53.8332 32.7041 54.0939 32.1831 54.0939 31.6512C54.0939 31.6386 54.0937 31.6258 54.0934 31.6131V31.1158C54.3896 31.1527 54.6905 31.174 54.9964 31.174C55.3045 31.174 55.6077 31.1524 55.9059 31.115V31.66C55.9059 32.4102 56.4208 33.0624 57.1505 33.2366L61.279 34.2229C63.2573 34.6956 64.6389 36.4461 64.6389 38.4799V39.8863Z" fill="#3D2E53"/>
<path d="M42.6459 48.4042C42.343 48.1026 41.9263 47.9308 41.5 47.9308C41.0719 47.9308 40.6554 48.1026 40.3539 48.4042C40.0507 48.7073 39.8789 49.1239 39.8789 49.5519C39.8789 49.9782 40.0507 50.3949 40.3539 50.698C40.6554 50.9995 41.072 51.173 41.5 51.173C41.9263 51.173 42.343 50.9995 42.6459 50.698C42.9475 50.3949 43.1211 49.9782 43.1211 49.5519C43.1211 49.1239 42.9476 48.7073 42.6459 48.4042Z" fill="#3D2E53"/>
<path d="M41.499 0C40.6039 0 39.8779 0.725761 39.8779 1.62109V4.04672C39.8779 4.94205 40.6039 5.66781 41.499 5.66781C42.3942 5.66781 43.1201 4.94205 43.1201 4.04672V1.62109C43.1201 0.725761 42.3944 0 41.499 0Z" fill="#3D2E53"/>
<path d="M35.5279 5.28784L33.8274 3.58894C33.194 2.95607 32.1677 2.95656 31.5348 3.58992C30.9019 4.22328 30.9026 5.24975 31.536 5.88246L33.2366 7.58136C33.5531 7.89763 33.9677 8.05569 34.3823 8.05569C34.7974 8.05569 35.2124 7.89715 35.529 7.58039C36.1616 6.94703 36.1612 5.92056 35.5279 5.28784Z" fill="#3D2E53"/>
<path d="M51.4249 3.63031C50.7915 2.9976 49.7649 2.99792 49.1323 3.63144L47.4449 5.32045C46.8122 5.95381 46.8127 6.98029 47.446 7.613C47.7626 7.92927 48.1772 8.08733 48.5918 8.08733C49.007 8.08733 49.4222 7.92879 49.7386 7.61186L51.426 5.92285C52.0587 5.28949 52.0582 4.26302 51.4249 3.63031Z" fill="#3D2E53"/>
</g>
</g>
</svg>
